<svg xmlns="http://www.w3.org/2000/svg" width="60" height="60" xmlns:xlink="http://www.w3.org/1999/xlink" version="1.1" id="Layer_1" x="0px" y="0px" viewBox="0 0 60 60" style="enable-background:new 0 0 60 60;" xml:space="preserve">
<g id="Symbols">
	<g id="icon_x2F_60x60_x2F_delivery" transform="translate(1.000000, 1.000000)">
		<g id="Group-909">
			<path id="Stroke-903" style="fill:none;stroke:#000000;stroke-width:2;stroke-linecap:round;stroke-linejoin:round;" d="     M53.6,44.7c1.7-0.7,2.9-2.4,2.9-4.3v-7.3c0-1.1-0.7-2-1.8-2.3c-1.9-0.5-3.7-1.5-5.1-2.9L38.8,17.4c-0.9-0.9-2.1-1.4-3.4-1.4     L30.9,10c-0.5-0.6-1.2-1-1.9-1H3.9c-1.3,0-2.4,1-2.4,2.3l0,29c0,2,1.3,3.7,3.1,4.4"/>
			<path id="Stroke-905" style="fill:none;stroke:#000000;stroke-width:2;stroke-linecap:round;stroke-linejoin:round;" d="     M50.9,44.2c0,2.6-2.1,4.8-4.8,4.8c-2.6,0-4.8-2.1-4.8-4.8s2.1-4.8,4.8-4.8C48.7,39.4,50.9,41.5,50.9,44.2L50.9,44.2z"/>
			<path id="Stroke-907" style="fill:none;stroke:#000000;stroke-width:2;stroke-linecap:round;stroke-linejoin:round;" d="     M16.7,44.2c0,2.6-2.1,4.7-4.7,4.7s-4.7-2.1-4.7-4.7s2.1-4.7,4.7-4.7S16.7,41.6,16.7,44.2L16.7,44.2z"/>
			<path id="Stroke-897" style="fill:none;stroke:#000000;stroke-width:2;stroke-linecap:round;stroke-linejoin:round;" d="M35.7,35     h1.9"/>
			<path id="Stroke-898" style="fill:none;stroke:#000000;stroke-width:2;stroke-linecap:round;stroke-linejoin:round;" d="     M38.2,44.3H19.5"/>
			
				<polyline id="Stroke-899" style="fill:none;stroke:#000000;stroke-width:2;stroke-linecap:round;stroke-linejoin:round;" points="     30,20.4 30,29.9 45.1,29.9    "/>
			<path id="Stroke-900" style="fill:none;stroke:#000000;stroke-width:2;stroke-linecap:round;stroke-linejoin:round;" d="     M9.1,21.5h13.3"/>
			<path id="Stroke-901" style="fill:none;stroke:#000000;stroke-width:2;stroke-linecap:round;stroke-linejoin:round;" d="     M9.1,16.4h19"/>
			<path id="Stroke-902" style="fill:none;stroke:#000000;stroke-width:2;stroke-linecap:round;stroke-linejoin:round;" d="     M9.1,27.8h13.3"/>
		</g>
	</g>
</g>
</svg>