<svg xmlns="http://www.w3.org/2000/svg" width="60" height="60" xmlns:xlink="http://www.w3.org/1999/xlink" version="1.1" id="Layer_1" x="0px" y="0px" viewBox="0 0 60 60" style="enable-background:new 0 0 60 60;" xml:space="preserve">
<g id="_9-Money">
	<path d="M55.2,12H4.8c-2,0-3.6,1.6-3.6,3.6v28.8c0,2,1.6,3.6,3.6,3.6h50.4c2,0,3.6-1.6,3.6-3.6V15.6C58.8,13.6,57.2,12,55.2,12z    M56.4,44.4c0,0.7-0.5,1.2-1.2,1.2H4.8c-0.7,0-1.2-0.5-1.2-1.2V15.6c0-0.7,0.5-1.2,1.2-1.2h50.4c0.7,0,1.2,0.5,1.2,1.2V44.4z"/>
	<path d="M51.6,24c-2.7,0-4.8-2.1-4.8-4.8c0-0.7-0.5-1.2-1.2-1.2H14.4c-0.7,0-1.2,0.5-1.2,1.2c0,2.7-2.1,4.8-4.8,4.8   c-0.7,0-1.2,0.5-1.2,1.2v9.6c0,0.7,0.5,1.2,1.2,1.2c2.7,0,4.8,2.1,4.8,4.8c0,0.7,0.5,1.2,1.2,1.2h31.2c0.7,0,1.2-0.5,1.2-1.2   c0-2.7,2.1-4.8,4.8-4.8c0.7,0,1.2-0.5,1.2-1.2v-9.6C52.8,24.5,52.3,24,51.6,24z M15.5,39.6c-0.5-3-2.9-5.4-5.9-5.9v-7.4   c3-0.5,5.4-2.9,5.9-5.9h7.3c-5.3,4-6.4,11.5-2.4,16.8c0.7,0.9,1.5,1.7,2.4,2.4H15.5z M30,39.6c-5.3,0-9.6-4.3-9.6-9.6   s4.3-9.6,9.6-9.6s9.6,4.3,9.6,9.6S35.3,39.6,30,39.6z M50.4,33.7c-3,0.5-5.4,2.9-5.9,5.9h-7.3c5.3-4,6.4-11.5,2.4-16.8   c-0.7-0.9-1.5-1.7-2.4-2.4h7.3c0.5,3,2.9,5.4,5.9,5.9V33.7z"/>
	<rect x="7.2" y="18" width="2.4" height="2.4"/>
	<rect x="50.4" y="18" width="2.4" height="2.4"/>
	<rect x="50.4" y="39.6" width="2.4" height="2.4"/>
	<rect x="7.2" y="39.6" width="2.4" height="2.4"/>
</g>
</svg>