<svg xmlns="http://www.w3.org/2000/svg" width="24" height="24" viewBox="0 0 24 24">
  <g fill="none" fill-rule="evenodd" stroke="#000000" stroke-linecap="round" stroke-linejoin="round" transform="translate(1)">
    <path d="M17.5,11.5 C19.417,11.5 21.5,10.5 21.5,10.5 C21.5,10.5 21.042,3.708 19.5,2.5 C17.958,1.292 14.5,0.5 14.5,0.5 C14.5,1.562 12.813,2.5 11,2.5 C9.187,2.5 7.5,1.562 7.5,0.5 C7.5,0.5 4.042,1.292 2.5,2.5 C0.958,3.708 0.5,10.5 0.5,10.5 C0.5,10.5 2.583,11.5 4.5,11.5"/>
    <path d="M18.5 5.5C17.906 6.094 17.5 7.25 17.5 8.5L17.5 22.5C17.5 22.5 15.625 23.5 11 23.5 6.375 23.5 4.5 22.5 4.5 22.5L4.5 8.5C4.5 7.25 4.094 6.094 3.5 5.5M7.5.5C7.5.5 10.125 1 11 1 11.875 1 14.5.5 14.5.5"/>
  </g>
</svg>
