<svg viewBox="0 0 2611 338" width="200" height="26" data-reactid="8"><g fill="#2e9889" data-reactid="9"><path d="M121.6 23.4c-60 0-105.1 45.5-105.1 106.2 0 58 44.2 103.2 100.5 103.2h39.5V173H123c-26.3 0-45.4-18.6-45.4-43.8 0-26.1 19.7-46.6 44.5-46.6 24.3 0 44.4 21.8 44.4 48.6v101.4h59.7V131.3c0-61.5-44.8-107.9-104.6-107.9zM676.7 23.3c-53.9 0-92.5 38.7-92.5 92.1v117.3h59.7V114.3c0-18.5 13.8-31.4 32.9-31.4 27.2 0 31.8 19.7 31.8 31.4v118.4h59.7V115.4c-.2-56-35.8-92.1-91.6-92.1zM241.1 97.4v135.3h59.7V106.3c0-17.9 16.6-27.7 32.5-27.7h27.2V23.9h-48.2c-40.2 0-71.2 32-71.2 73.5zM883.4 23.4c-59.4 0-104 45.5-104 106.2 0 58 44.2 103.2 100.5 103.2h37.4V173H886c-26.2 0-46-19-46-43.8 0-26.1 19.4-46.6 43.9-46.6 24.2 0 43.3 21.3 43.3 48.6v101.4h59.7V131.3c0-61.5-44.4-107.9-103.5-107.9zM468 23.7c-56.6 0-102.7 47.1-102.7 105.1 0 57.8 46.1 104.8 102.7 104.8 44.9 0 81.5-24.4 95.4-63.8l2.4-6.8H502l-1.2 1.5c-8.3 9.6-21.3 15.5-33.1 15.5-19.1 0-33.3-6.9-40-26.8h140.8l.4-4.5c3.6-37.8-5.8-70-26.9-93.2-18.6-20.5-44.9-31.8-74-31.8zm-39.5 79.7c8.7-19.9 25.8-25.2 39.2-25.2 14.3 0 32.3 5.3 40.1 25.2h-79.3z" data-reactid="10"></path></g><g fill="#231f20" data-reactid="11"><path d="M1221.5 120.6c-5.7-6.1-12.6-10.9-20.7-14.4s-17.1-5.2-27.1-5.2c-8.7 0-17.2 1.9-25.5 5.7s-14.8 9.2-19.5 16.1h-.5v-18.5h-24.5v206.1h24.5V215h.5c4.3 6.7 10.6 12 18.8 15.9 8.2 3.9 16.9 5.9 26.2 5.9 10 0 19-1.7 27.1-5.2 8.1-3.4 15-8.2 20.7-14.3 5.7-6 10.1-13.2 13.2-21.5s4.6-17.3 4.6-26.9c0-9.5-1.5-18.3-4.6-26.6s-7.5-15.5-13.2-21.7zm-11.1 66.4c-2.1 5.6-4.9 10.3-8.5 14.2-3.7 3.9-8.1 7-13.4 9.3s-11.2 3.4-17.7 3.4-12.4-1.1-17.7-3.4-9.8-5.4-13.4-9.3c-3.7-3.9-6.5-8.7-8.5-14.2s-3-11.6-3-18.1 1-12.6 3-18.1c2-5.6 4.9-10.3 8.5-14.2 3.7-3.9 8.1-7 13.4-9.3 5.2-2.3 11.2-3.4 17.7-3.4s12.5 1.1 17.7 3.4c5.3 2.3 9.8 5.4 13.4 9.3 3.7 3.9 6.5 8.7 8.5 14.2s3 11.6 3 18.1-1 12.6-3 18.1zM1321.9 102.8c-4 1.2-7.6 2.8-11 4.8-3.3 2-6.4 4.4-9.1 7.2s-4.9 5.9-6.5 9.4h-.5v-19.9h-24.5l-.1 129.2h24.5v-64.9c0-14.2 3.1-24.7 9.5-31.4 6.3-6.7 15.5-10.1 27.5-10.1 2 0 4 .1 6 .5s4 .9 6 1.4l1.1-26.4c-3.3-1.1-6.9-1.6-10.9-1.6s-8 .6-12 1.8zM1373.1 104.3h24.5v129.2h-24.5zM1385.4 39.9c-4.9 0-9.2 1.8-12.7 5.3-3.5 3.6-5.3 7.8-5.3 12.7s1.7 9.2 5.3 12.7c3.6 3.5 7.8 5.3 12.7 5.3 4.9 0 9.2-1.8 12.7-5.3 3.5-3.6 5.3-7.8 5.3-12.7s-1.8-9.2-5.3-12.7c-3.6-3.5-7.8-5.3-12.7-5.3zM1537 112.8c-4.3-4-9.3-7-15-8.9-5.8-1.9-11.7-2.9-17.9-2.9-10 0-18.8 2.1-26.4 6.4s-13 9.9-16.1 16.8h-.5v-19.9h-24.4v129.4h24.5v-66.5c0-7.5.9-13.9 2.7-19.4 1.8-5.5 4.3-10 7.6-13.5 3.2-3.6 7-6.2 11.4-7.8 4.4-1.7 9.1-2.5 14.2-2.5 3.8 0 7.5.6 11 1.8 3.5 1.2 6.7 3.1 9.4 5.7 2.7 2.7 4.9 6.1 6.5 10.4 1.7 4.3 2.5 9.4 2.5 15.4v76.3h24.5v-83.2c0-8.5-1.3-15.9-3.8-22.2s-5.9-11.4-10.2-15.4zM1640.8 213.8c-4.8 0-8.3-.9-10.8-2.6s-4.3-4-5.5-6.8c-1.1-2.8-1.8-6-2-9.5-.2-3.6-.3-7.2-.3-10.8v-58.6h35.2v-21.2h-35.2V68h-24.5v36.3h-28.4v21.3h28.4v67.3c0 5.3.2 10.5.7 15.7.5 5.1 1.9 9.8 4.4 14s6.3 7.6 11.5 10.2c5.1 2.7 12.4 4 21.9 4 2.6 0 6.2-.4 10.8-1 4.6-.6 8.4-1.8 11.3-3.4V210c-2.6 1.5-5.4 2.5-8.5 3s-6.1.8-9 .8zM1777.6 180.9c-1.9-4.1-4.5-7.7-7.9-10.6s-7.4-5.3-12-7.1c-4.7-1.8-9.6-3.3-14.9-4.6-2.7-.5-6-1.2-9.8-1.9-3.8-.8-7.4-1.8-10.8-3.3-3.3-1.4-6.2-3.3-8.7-5.7s-3.7-5.5-3.7-9.3c0-4.8 2.1-8.3 6.4-10.8 4.2-2.5 9.3-3.7 15.1-3.7 6.2 0 11.4 1.2 15.7 3.7 4.3 2.4 7.9 5.5 10.8 9.1l19.3-14.5c-4.7-7.7-11.1-13.1-19.1-16.4s-16.4-4.9-25.1-4.9c-6 0-12 .9-17.9 2.5-5.9 1.7-11.2 4.1-15.8 7.4-4.7 3.3-8.4 7.4-11.2 12.4-2.8 5-4.2 10.9-4.2 17.6 0 6.1 1.1 11.3 3.3 15.5 2.2 4.2 5.1 7.7 8.7 10.4s7.8 4.9 12.5 6.5c4.7 1.7 9.7 3.1 15 4.4 2.7.5 5.9 1.2 9.4 2 3.6.8 6.9 1.9 10.1 3.3s5.9 3.2 8.2 5.6c2.3 2.4 3.4 5.4 3.4 9 0 2.7-.8 5.1-2.3 7.2s-3.5 3.8-6 5.2-5.3 2.4-8.5 3c-3.2.7-6.3 1-9.4 1-7.1 0-13.1-1.5-18-4.6s-9.4-6.6-13.4-10.6l-18.5 15.3c6.4 8.7 13.6 14.7 21.7 18s17.5 4.9 28.2 4.9c6.3 0 12.6-.7 18.9-2.2s11.9-3.8 16.8-7.1 8.9-7.5 12-12.7 4.6-11.4 4.6-18.7c0-6-1-11.1-2.9-15.3z" data-reactid="12"></path></g></svg>