<svg xmlns="http://www.w3.org/2000/svg" width="60" height="60" viewBox="0 0 60 60">
  <g fill="none" fill-rule="evenodd" stroke="#000000" stroke-width="2" stroke-linecap="round" stroke-linejoin="round">
    <path d="M58.75 30C58.75 45.8775 45.8775 58.75 30 58.75 14.1225 58.75 1.25 45.8775 1.25 30 1.25 14.1225 14.1225 1.25 30 1.25 45.8775 1.25 58.75 14.1225 58.75 30L58.75 30zM29.999 53.73875C23.9165 53.73875 17.8365 51.42375 13.2065 46.79375M46.79375 13.20625C56.05375 22.46625 56.05375 37.53375 46.79375 46.79375"/>
    <path d="M30,41.25 C23.7975,41.25 18.75,36.2025 18.75,30 C18.75,23.7975 23.7975,18.75 30,18.75 C36.2025,18.75 41.25,23.7975 41.25,30 C41.25,36.2025 36.2025,41.25 30,41.25 L30,41.25 Z"/>
    <path d="M31.25,30 C31.25,30.69 30.69,31.25 30,31.25 C29.31,31.25 28.75,30.69 28.75,30 C28.75,29.31 29.31,28.75 30,28.75 C30.69,28.75 31.25,29.31 31.25,30 L31.25,30 Z"/>
  </g>
</svg>
