<?xml version="1.0" encoding="utf-8"?>
<!-- Generator: Adobe Illustrator 22.1.0, SVG Export Plug-In . SVG Version: 6.00 Build 0)  -->
<svg version="1.1" id="Layer_1" xmlns="http://www.w3.org/2000/svg" xmlns:xlink="http://www.w3.org/1999/xlink" x="0px" y="0px"
	 viewBox="0 0 2611 338" style="enable-background:new 0 0 2611 338;" xml:space="preserve">
<g>
	<g>
		<g>
			<g>
				<path style="fill:#2C73B9;" d="M121.6,22.6c-60,0-105.1,45.5-105.1,106.2c0,58,44.2,103.2,100.6,103.2h39.5v-59.7h-33.5
					c-26.3,0-45.4-18.6-45.4-43.8c0-26.1,19.7-46.6,44.5-46.6c24.4,0,44.4,21.8,44.4,48.7v101.5h59.7V130.6
					C226.3,69,181.4,22.6,121.6,22.6z"/>
				<path style="fill:#2C73B9;" d="M677.1,22.5c-54,0-92.6,38.8-92.6,92.2v117.4h59.7V113.6c0-18.5,13.8-31.5,32.9-31.5
					c27.2,0,31.8,19.7,31.8,31.5v118.5h59.7V114.7C768.5,58.7,732.9,22.5,677.1,22.5z"/>
				<path style="fill:#2C73B9;" d="M312.5,23.1c-40.2,0-71.3,32-71.3,73.6v135.4h59.7V105.6c0-17.9,16.6-27.7,32.5-27.7h27.2V23.1
					H312.5z"/>
				<path style="fill:#2C73B9;" d="M883.9,22.6c-59.4,0-104,45.5-104,106.2c0,58,44.3,103.2,100.6,103.2h37.4v-59.7h-31.4
					c-26.2,0-46-19-46-43.8c0-26.1,19.4-46.6,43.9-46.6c24.2,0,43.4,21.3,43.4,48.7v101.5h59.7V130.6C987.4,69,943,22.6,883.9,22.6z
					"/>
				<path style="fill:#2C73B9;" d="M501.1,163.8c-8.3,9.6-21.3,15.5-33.1,15.5c-19.1,0-33.4-7-40.1-26.9h140.9l0.4-4.5
					c3.6-37.8-5.8-70.1-26.9-93.3c-18.6-20.4-44.9-31.7-74-31.7c-56.7,0-102.8,47.2-102.8,105.2c0,57.8,46.1,104.9,102.8,104.9
					c45,0,81.5-24.4,95.4-63.8l2.4-6.8h-63.9L501.1,163.8z M467.9,77.5c14.3,0,32.3,5.3,40.1,25.2h-79.3
					C437.4,82.8,454.5,77.5,467.9,77.5z"/>
			</g>
		</g>
	</g>
	<g>
		<path style="fill:#231F20;" d="M1122.9,177.2c0,5.6,1.2,10.8,3.7,15.4c2.5,4.6,5.7,8.6,9.7,11.9c4,3.3,8.6,5.8,13.9,7.6
			s10.7,2.7,16.4,2.7c7.6,0,14.3-1.8,19.9-5.3s10.8-8.2,15.5-14l18.5,14.2c-13.6,17.6-32.7,26.5-57.3,26.5
			c-10.2,0-19.4-1.7-27.7-5.2c-8.3-3.5-15.3-8.2-21-14.3s-10.1-13.3-13.2-21.5c-3.1-8.3-4.6-17.2-4.6-26.9c0-9.6,1.7-18.6,5-26.9
			c3.4-8.3,8-15.5,13.9-21.5c5.9-6.1,13-10.9,21.1-14.3c8.2-3.5,17.1-5.2,26.7-5.2c11.5,0,21.1,2,29.1,6c7.9,4,14.4,9.2,19.5,15.7
			s8.8,13.7,11,21.8c2.3,8.1,3.4,16.3,3.4,24.7v8.7L1122.9,177.2L1122.9,177.2z M1200.4,157.6c-0.2-5.5-1-10.5-2.6-15
			c-1.5-4.5-3.9-8.5-7-11.9s-7-6-11.6-7.9s-10-2.9-16.2-2.9c-6,0-11.5,1.1-16.5,3.4s-9.2,5.2-12.7,8.9c-3.5,3.6-6.1,7.7-8,12.1
			c-1.9,4.5-2.9,8.9-2.9,13.2L1200.4,157.6L1200.4,157.6z"/>
		<path style="fill:#231F20;" d="M1256,103.6h22.9v20.2h0.5c0.5-1.8,2-4.1,4.2-6.8c2.3-2.7,5.2-5.3,8.7-7.8s7.7-4.5,12.5-6.3
			c4.8-1.7,10.1-2.6,16-2.6c9.6,0,17.7,2,24.3,6c6.5,4,11.9,10,16.1,18c4.2-8,10.1-14,17.7-18s15.4-6,23.2-6c10,0,18.2,1.6,24.6,4.9
			s11.4,7.6,15,13s6.1,11.5,7.5,18.3s2,13.9,2,21.1v75.3h-24.6v-72c0-4.9-0.3-9.6-1-14.2c-0.6-4.5-2-8.5-4-12s-4.8-6.2-8.5-8.3
			c-3.6-2.1-8.5-3.1-14.5-3.1c-11.8,0-20.3,3.6-25.4,10.9s-7.6,16.6-7.6,28.1V233H1341v-67.7c0-6.2-0.3-11.8-1-16.9
			c-0.6-5.1-1.9-9.5-3.8-13.2s-4.6-6.6-8.2-8.7c-3.5-2.1-8.3-3.1-14.3-3.1c-4.4,0-8.6,0.9-12.7,2.6s-7.7,4.3-10.8,7.8
			c-3.1,3.5-5.6,7.9-7.4,13.2c-1.8,5.4-2.7,11.7-2.7,19v67.1H1256V103.6z"/>
		<path style="fill:#231F20;" d="M1488.4,26.6h24.6v95.5h0.5c4.4-6.7,10.6-12,18.8-16c8.2-3.9,16.9-5.9,26.2-5.9
			c10,0,19,1.7,27.1,5.2s15,8.2,20.7,14.3c5.7,6.1,10.1,13.3,13.2,21.5c3.1,8.3,4.6,17.2,4.6,26.9c0,9.6-1.5,18.5-4.6,26.7
			s-7.5,15.4-13.2,21.5c-5.7,6.2-12.6,11-20.7,14.5s-17.1,5.2-27.1,5.2c-8.7,0-17.2-1.9-25.5-5.7s-14.8-9.2-19.5-16.1h-0.5v18.5
			h-24.6V26.6z M1555.5,213.2c6.5,0,12.5-1.1,17.7-3.4c5.3-2.3,9.7-5.4,13.4-9.3c3.6-3.9,6.5-8.6,8.5-14.2c2-5.5,3-11.6,3-18.1
			s-1-12.6-3-18.1s-4.8-10.3-8.5-14.2c-3.6-3.9-8.1-7-13.4-9.3s-11.2-3.4-17.7-3.4s-12.5,1.1-17.7,3.4c-5.3,2.3-9.7,5.4-13.4,9.3
			c-3.6,3.9-6.5,8.6-8.5,14.2c-2,5.6-3,11.6-3,18.1s1,12.6,3,18.1s4.8,10.3,8.5,14.2c3.6,3.9,8.1,7,13.4,9.3
			C1543.1,212.1,1549,213.2,1555.5,213.2z"/>
		<path style="fill:#231F20;" d="M1655.1,103.6h24.6v19.9h0.5c1.6-3.5,3.8-6.6,6.5-9.4s5.8-5.2,9.1-7.2c3.4-2,7-3.6,11-4.8
			c4-1.2,8-1.8,12-1.8s7.6,0.5,10.9,1.6l-1.1,26.5c-2-0.5-4-1-6-1.4s-4-0.5-6-0.5c-12,0-21.2,3.4-27.5,10.1
			c-6.4,6.7-9.5,17.2-9.5,31.4v64.9H1655L1655.1,103.6L1655.1,103.6z"/>
		<path style="fill:#231F20;" d="M1744.9,168.2c0-9.5,1.8-18.3,5.3-26.5s8.4-15.4,14.6-21.5c6.2-6.2,13.5-11,21.8-14.6
			c8.4-3.5,17.4-5.3,27-5.3s18.6,1.8,27,5.3s15.6,8.4,21.8,14.6c6.2,6.2,11,13.4,14.6,21.5c3.5,8.2,5.3,17,5.3,26.5
			s-1.8,18.3-5.3,26.6s-8.4,15.5-14.6,21.6s-13.5,10.9-21.8,14.5c-8.4,3.5-17.4,5.3-27,5.3s-18.6-1.8-27-5.3s-15.6-8.4-21.8-14.5
			c-6.2-6.1-11-13.3-14.6-21.6C1746.6,186.5,1744.9,177.7,1744.9,168.2z M1771,168.2c0,6.5,1,12.6,3,18.1s4.8,10.3,8.5,14.2
			c3.6,3.9,8.1,7,13.4,9.3s11.2,3.4,17.7,3.4s12.5-1.1,17.7-3.4c5.3-2.3,9.7-5.4,13.4-9.3c3.6-3.9,6.5-8.6,8.5-14.2
			c2-5.5,3-11.6,3-18.1s-1-12.6-3-18.1s-4.8-10.3-8.5-14.2c-3.6-3.9-8.1-7-13.4-9.3s-11.2-3.4-17.7-3.4s-12.5,1.1-17.7,3.4
			c-5.3,2.3-9.7,5.4-13.4,9.3c-3.6,3.9-6.5,8.6-8.5,14.2C1772,155.6,1771,161.7,1771,168.2z"/>
		<path style="fill:#231F20;" d="M1909.3,57.2c0-4.9,1.8-9.1,5.3-12.7c3.5-3.5,7.8-5.3,12.7-5.3c4.9,0,9.1,1.8,12.7,5.3
			c3.5,3.5,5.3,7.8,5.3,12.7s-1.8,9.1-5.3,12.7c-3.5,3.5-7.8,5.3-12.7,5.3c-4.9,0-9.1-1.8-12.7-5.3
			C1911.1,66.3,1909.3,62.1,1909.3,57.2z M1915.1,103.6h24.6v129.3h-24.6V103.6z"/>
		<path style="fill:#231F20;" d="M2108.2,232.9h-24.6v-18.5h-0.5c-4.7,6.9-11.2,12.3-19.5,16.1s-16.8,5.7-25.5,5.7
			c-10,0-19.1-1.7-27.1-5.2c-8.1-3.5-15-8.3-20.7-14.5s-10.1-13.4-13.2-21.5c-3.1-8.2-4.6-17.1-4.6-26.7c0-9.6,1.5-18.6,4.6-26.9
			c3.1-8.3,7.5-15.5,13.2-21.5c5.7-6.1,12.6-10.9,20.7-14.3c8.1-3.5,17.1-5.2,27.1-5.2c9.3,0,18,2,26.2,5.9s14.5,9.2,18.8,16h0.5
			V26.6h24.6V232.9z M2041.1,213.2c6.5,0,12.5-1.1,17.7-3.4c5.3-2.3,9.7-5.4,13.4-9.3c3.6-3.9,6.5-8.6,8.5-14.2c2-5.5,3-11.6,3-18.1
			s-1-12.6-3-18.1s-4.8-10.3-8.5-14.2c-3.6-3.9-8.1-7-13.4-9.3c-5.3-2.3-11.2-3.4-17.7-3.4s-12.5,1.1-17.7,3.4
			c-5.3,2.3-9.7,5.4-13.4,9.3c-3.6,3.9-6.5,8.6-8.5,14.2c-2,5.6-3,11.6-3,18.1s1,12.6,3,18.1s4.8,10.3,8.5,14.2
			c3.6,3.9,8.1,7,13.4,9.3C2028.6,212.1,2034.6,213.2,2041.1,213.2z"/>
		<path style="fill:#231F20;" d="M2163.9,177.2c0,5.6,1.2,10.8,3.7,15.4c2.5,4.6,5.7,8.6,9.7,11.9c4,3.3,8.6,5.8,13.9,7.6
			c5.3,1.8,10.7,2.7,16.4,2.7c7.6,0,14.3-1.8,19.9-5.3c5.6-3.5,10.8-8.2,15.5-14l18.5,14.2c-13.6,17.6-32.7,26.5-57.3,26.5
			c-10.2,0-19.4-1.7-27.7-5.2s-15.3-8.2-21-14.3s-10.1-13.3-13.2-21.5c-3.1-8.3-4.6-17.2-4.6-26.9c0-9.6,1.7-18.6,5-26.9
			c3.4-8.3,8-15.5,13.9-21.5c5.9-6.1,13-10.9,21.1-14.3c8.2-3.5,17.1-5.2,26.7-5.2c11.5,0,21.1,2,29.1,6c7.9,4,14.4,9.2,19.5,15.7
			s8.8,13.7,11,21.8c2.3,8.1,3.4,16.3,3.4,24.7v8.7L2163.9,177.2L2163.9,177.2z M2241.3,157.6c-0.2-5.5-1-10.5-2.6-15
			c-1.5-4.5-3.9-8.5-7-11.9s-7-6-11.6-7.9s-10-2.9-16.2-2.9c-6,0-11.5,1.1-16.5,3.4s-9.2,5.2-12.7,8.9c-3.5,3.6-6.1,7.7-8,12.1
			c-1.9,4.5-2.9,8.9-2.9,13.2L2241.3,157.6L2241.3,157.6z"/>
		<path style="fill:#231F20;" d="M2297,103.6h24.6v19.9h0.5c1.6-3.5,3.8-6.6,6.5-9.4s5.8-5.2,9.1-7.2c3.4-2,7-3.6,11-4.8
			c4-1.2,8-1.8,12-1.8s7.6,0.5,10.9,1.6l-1.1,26.5c-2-0.5-4-1-6-1.4s-4-0.5-6-0.5c-12,0-21.2,3.4-27.6,10.1
			c-6.4,6.7-9.5,17.2-9.5,31.4v64.9H2297V103.6z"/>
		<path style="fill:#231F20;" d="M2382.6,103.6h28.4l38.3,100.9h0.5l36.7-100.9h26.2l-61.4,157.1c-2.2,5.6-4.4,10.8-6.8,15.4
			c-2.4,4.6-5.2,8.6-8.4,11.9c-3.3,3.3-7.2,5.8-11.8,7.6c-4.6,1.8-10.3,2.7-17,2.7c-3.6,0-7.3-0.2-11-0.7s-7.3-1.4-10.7-2.9l3-22.4
			c4.9,2,9.8,3,14.6,3c3.8,0,7-0.5,9.6-1.5s4.9-2.5,6.8-4.4c1.9-1.9,3.5-4.1,4.7-6.7c1.3-2.5,2.5-5.5,3.8-8.7l7.9-20.5L2382.6,103.6
			z"/>
	</g>
</g>
</svg>
