<?xml version="1.0" encoding="utf-8"?>
<!-- Generator: Adobe Illustrator 22.1.0, SVG Export Plug-In . SVG Version: 6.00 Build 0)  -->
<svg version="1.1" id="Layer_1" xmlns="http://www.w3.org/2000/svg" xmlns:xlink="http://www.w3.org/1999/xlink" x="0px" y="0px"
	 viewBox="0 0 2611 338" style="enable-background:new 0 0 2611 338;" xml:space="preserve">
<g>
	<g>
		<g>
			<g>
				<path style="fill:#D34791;" d="M123.7,23.8c-59.9,0-104.9,45.4-104.9,106c0,57.9,44.1,102.9,100.3,102.9h39.4v-59.5h-33.4
					c-26.3,0-45.3-18.5-45.3-43.7c0-26,19.6-46.5,44.4-46.5c24.3,0,44.3,21.7,44.3,48.5v101.2H228V131.5
					C228,70.1,183.3,23.8,123.7,23.8z"/>
				<path style="fill:#D34791;" d="M677.6,23.8c-53.8,0-92.4,38.7-92.4,91.9v117.1h59.5V114.5c0-18.5,13.8-31.4,32.8-31.4
					c27.1,0,31.7,19.7,31.7,31.4v118.2h59.7v-117C768.9,59.8,733.4,23.8,677.6,23.8z"/>
				<path style="fill:#D34791;" d="M314,24.3c-40.1,0-71.1,32-71.1,73.4v135h59.5V106.6c0-17.8,16.5-27.6,32.4-27.6H362V24.3H314z"
					/>
				<path style="fill:#D34791;" d="M883.9,23.8c-59.2,0-103.8,45.4-103.8,106c0,57.9,44.1,102.9,100.3,102.9h37.3v-59.5h-31.3
					c-26.1,0-45.9-18.9-45.9-43.7c0-26,19.4-46.5,43.8-46.5c24.1,0,43.2,21.2,43.2,48.5v101.2H987V131.5
					C987.2,70.1,942.9,23.8,883.9,23.8z"/>
				<path style="fill:#D34791;" d="M502.1,164.6c-8.3,9.6-21.3,15.5-33,15.5c-19.1,0-33.3-6.9-40-26.8h140.5l0.4-4.5
					c3.5-37.7-5.8-69.9-26.8-93.1c-18.6-20.3-44.8-31.5-73.8-31.5c-56.5,0-102.5,47.1-102.5,104.9c0,57.7,46,104.6,102.5,104.6
					c44.8,0,81.3-24.4,95.2-63.6l2.4-6.8h-63.7L502.1,164.6z M469.1,78.6c14.3,0,32.2,5.3,40,25.1H430
					C438.6,83.9,455.7,78.6,469.1,78.6z"/>
			</g>
		</g>
	</g>
	<g>
		<path style="fill:#231F20;" d="M1172.4,137c-2.9-3.6-6.5-6.7-10.7-9.1c-4.3-2.4-9.5-3.7-15.6-3.7c-5.8,0-10.8,1.2-15.1,3.7
			c-4.3,2.4-6.4,6-6.4,10.7c0,3.8,1.2,6.9,3.7,9.3c2.4,2.4,5.3,4.3,8.7,5.7c3.4,1.5,6.9,2.5,10.7,3.3c3.8,0.7,7.1,1.4,9.8,1.9
			c5.3,1.3,10.2,2.8,14.8,4.6c4.6,1.8,8.6,4.2,12,7.1c3.4,2.9,6,6.4,7.9,10.6c1.9,4.2,2.9,9.3,2.9,15.2c0,7.3-1.5,13.5-4.6,18.6
			c-3.1,5.2-7.1,9.4-12,12.7s-10.5,5.6-16.7,7.1c-6.3,1.5-12.6,2.2-18.9,2.2c-10.7,0-20.1-1.6-28.2-4.9c-8.1-3.3-15.3-9.2-21.6-18
			l18.5-15.2c4,4,8.4,7.5,13.3,10.6s10.9,4.6,18,4.6c3.1,0,6.2-0.3,9.4-1c3.2-0.6,6-1.6,8.4-3s4.4-3.1,6-5.2
			c1.5-2.1,2.3-4.5,2.3-7.2c0-3.6-1.1-6.6-3.4-9s-5-4.2-8.2-5.6c-3.2-1.4-6.5-2.4-10.1-3.3s-6.7-1.5-9.4-2c-5.3-1.3-10.2-2.7-15-4.4
			c-4.7-1.6-8.9-3.8-12.5-6.5s-6.5-6.2-8.7-10.3c-2.2-4.2-3.3-9.3-3.3-15.5c0-6.7,1.4-12.6,4.2-17.5c2.8-5,6.5-9.1,11.2-12.4
			c4.6-3.3,9.9-5.7,15.8-7.3c5.9-1.6,11.8-2.4,17.8-2.4c8.7,0,17,1.6,25,4.9s14.3,8.7,19,16.3L1172.4,137z"/>
		<path style="fill:#231F20;" d="M1243.1,178.1c0,5.6,1.2,10.7,3.7,15.4s5.7,8.6,9.7,11.8c4,3.3,8.6,5.8,13.9,7.6s10.7,2.7,16.3,2.7
			c7.6,0,14.2-1.8,19.9-5.3c5.6-3.5,10.8-8.2,15.5-14l18.5,14.1c-13.6,17.6-32.6,26.4-57.1,26.4c-10.2,0-19.4-1.7-27.6-5.2
			c-8.3-3.4-15.2-8.2-20.9-14.3c-5.7-6.1-10.1-13.2-13.2-21.5s-4.6-17.2-4.6-26.8s1.7-18.5,5-26.8c3.4-8.3,8-15.4,13.9-21.5
			c5.9-6.1,12.9-10.8,21.1-14.3c8.2-3.4,17-5.2,26.7-5.2c11.4,0,21.1,2,29,6s14.4,9.2,19.5,15.6s8.7,13.7,11,21.8
			c2.3,8.1,3.4,16.3,3.4,24.6v8.7h-103.7V178.1z M1320.4,158.5c-0.2-5.4-1-10.4-2.6-15c-1.5-4.5-3.9-8.5-6.9-11.8
			c-3.1-3.4-6.9-6-11.6-7.9c-4.6-1.9-10-2.9-16.2-2.9c-6,0-11.5,1.1-16.5,3.4c-5,2.3-9.2,5.2-12.7,8.8c-3.4,3.6-6.1,7.7-8,12.1
			c-1.9,4.4-2.9,8.8-2.9,13.2h77.4V158.5z"/>
		<path style="fill:#231F20;" d="M1360.4,104.6h27.5l29,96.3h0.5l30.9-96.3h26.1l32.6,96.3h0.5l27.5-96.3h26.1l-41.6,129h-24.8
			l-34.2-96.3h-0.6l-31.1,96.3h-26.1L1360.4,104.6z"/>
		<path style="fill:#231F20;" d="M1578.6,58.3c0-4.9,1.8-9.1,5.3-12.7s7.8-5.3,12.7-5.3s9.1,1.8,12.7,5.3s5.3,7.8,5.3,12.7
			s-1.8,9.1-5.3,12.7s-7.8,5.3-12.7,5.3s-9.1-1.8-12.7-5.3S1578.6,63.2,1578.6,58.3z M1584.3,104.6h24.5v129h-24.5V104.6z"/>
		<path style="fill:#231F20;" d="M1647.7,104.6h24.5v19.9h0.5c3.1-6.9,8.4-12.5,16.1-16.7c7.6-4.3,16.4-6.4,26.4-6.4
			c6.2,0,12.1,1,17.8,2.9s10.7,4.9,15,8.8c4.3,4,7.7,9.1,10.2,15.4c2.5,6.3,3.8,13.7,3.8,22.2v83h-24.5v-76.2c0-6-0.8-11.1-2.4-15.4
			c-1.6-4.3-3.8-7.7-6.5-10.3s-5.8-4.5-9.4-5.7c-3.5-1.2-7.2-1.8-11-1.8c-5.1,0-9.8,0.8-14.1,2.4c-4.4,1.6-8.2,4.2-11.4,7.8
			c-3.3,3.5-5.8,8-7.6,13.5c-1.8,5.4-2.7,11.9-2.7,19.3v66.4h-24.5V104.6H1647.7z"/>
		<path style="fill:#231F20;" d="M1928.2,232.5c0,9.8-1.7,18.7-5,26.8c-3.4,8.1-8.1,15.1-14.3,20.9c-6.2,5.9-13.6,10.5-22.3,13.7
			c-8.7,3.3-18.3,4.9-28.8,4.9c-12.3,0-23.6-1.7-33.9-5.2c-10.2-3.4-20-9.4-29.2-18l16.6-20.7c6.3,6.9,13.2,12.1,20.7,15.6
			c7.4,3.5,15.9,5.3,25.3,5.3c9.1,0,16.6-1.3,22.6-3.9c6-2.6,10.7-6,14.3-10.2c3.5-4.2,6-8.9,7.5-14.3c1.5-5.4,2.2-10.7,2.2-16.2
			v-19h-0.8c-4.7,7.8-11.1,13.6-19.2,17.3s-16.6,5.6-25.4,5.6c-9.4,0-18.2-1.7-26.3-5c-8.1-3.4-15-8-20.8-13.9s-10.3-12.9-13.6-20.9
			c-3.3-8.1-4.9-16.8-4.9-26.3c0-9.4,1.5-18.3,4.6-26.5c3.1-8.3,7.5-15.5,13.2-21.6c5.7-6.2,12.6-11,20.7-14.4s17.1-5.2,27.1-5.2
			c8.7,0,17.2,1.9,25.4,5.7c8.3,3.8,14.7,9.2,19.5,16.1h0.5v-18.5h24.5v127.9H1928.2z M1861.3,124.2c-6.5,0-12.4,1.1-17.7,3.4
			c-5.3,2.3-9.7,5.4-13.3,9.3c-3.6,3.9-6.4,8.6-8.4,14.1s-3,11.6-3,18.1c0,13.1,3.8,23.5,11.4,31.4s18,11.8,31,11.8
			s23.4-3.9,31-11.8c7.6-7.9,11.4-18.4,11.4-31.4c0-6.5-1-12.6-3-18.1s-4.8-10.2-8.4-14.1c-3.6-3.9-8.1-7-13.3-9.3
			C1873.7,125.3,1867.8,124.2,1861.3,124.2z"/>
	</g>
</g>
</svg>
