<?xml version="1.0" encoding="UTF-8"?>
<svg width="24px" height="24px" viewBox="0 0 24 24" version="1.1" xmlns="http://www.w3.org/2000/svg" xmlns:xlink="http://www.w3.org/1999/xlink">
    <!-- Generator: Sketch 51.3 (57544) - http://www.bohemiancoding.com/sketch -->
    <title>Basket</title>
    <desc>Created with Sketch.</desc>
    <defs></defs>
    <g id="Basket" stroke="none" stroke-width="1" fill="none" fill-rule="evenodd">
        <path d="M22,9 L20.5,9 C19.9477153,9 19.5,8.55228475 19.5,8 C19.5,7.44771525 19.9477153,7 20.5,7 L24,7 L24,24 L0,24 L0,7 L3.5,7 C4.05228475,7 4.5,7.44771525 4.5,8 C4.5,8.55228475 4.05228475,9 3.5,9 L2,9 L2,22 L22,22 L22,9 Z" id="Path-19" fill="#000000" fill-rule="nonzero"></path>
        <path d="M8,10 C8,10.5522847 7.55228475,11 7,11 C6.44771525,11 6,10.5522847 6,10 L6,7 C6,3.6862915 8.6862915,1 12,1 C15.3137085,1 18,3.6862915 18,7 L18,10 C18,10.5522847 17.5522847,11 17,11 C16.4477153,11 16,10.5522847 16,10 L16,7 C16,4.790861 14.209139,3 12,3 C9.790861,3 8,4.790861 8,7 L8,10 Z" id="Path-21" fill="#000000" fill-rule="nonzero"></path>
        <path d="M10,9 C9.44771525,9 9,8.55228475 9,8 C9,7.44771525 9.44771525,7 10,7 L14,7 C14.5522847,7 15,7.44771525 15,8 C15,8.55228475 14.5522847,9 14,9 L10,9 Z" id="Path-29" fill="#000000" fill-rule="nonzero"></path>
    </g>
</svg>