<?xml version="1.0" encoding="UTF-8"?>
<svg width="60px" height="60px" viewBox="0 0 60 60" version="1.1" xmlns="http://www.w3.org/2000/svg" xmlns:xlink="http://www.w3.org/1999/xlink">
    <!-- Generator: Sketch 51.3 (57544) - http://www.bohemiancoding.com/sketch -->
    <title>BasketEmpty</title>
    <desc>Created with Sketch.</desc>
    <defs></defs>
    <g id="BasketEmpty" stroke="none" stroke-width="1" fill="none" fill-rule="evenodd">
        <path d="M30.9984069,12.2024668 L23.877362,10.7887784 C23.3898202,10.6919903 23.0730517,10.2182974 23.1698398,9.73075556 C23.2666278,9.24321375 23.7403208,8.92644526 24.2278626,9.02323333 L29.5236734,10.0745715 C28.4912155,8.39709563 27.2220444,7.08992445 25.7146489,6.14342842 C22.0042591,3.81366866 18.602627,3.21720744 13.7114745,4.68292346 C13.2353373,4.82560597 12.7336848,4.55528754 12.5910023,4.07915033 C12.4483198,3.60301312 12.7186382,3.10136062 13.1947755,2.9586781 C18.6094027,1.33609404 22.5414677,2.02556433 26.6718257,4.61902276 C28.2772709,5.62708439 29.6409049,6.97974669 30.7615446,8.66947096 L31.6379779,4.04812534 C31.7305933,3.55977369 32.2015601,3.23896606 32.6899118,3.33158143 C33.1782634,3.42419681 33.4990711,3.89516364 33.4064557,4.38351529 L32.1085455,11.2272663 C32.148219,11.5989518 31.9519137,11.9711114 31.5942933,12.1381705 C31.4432163,12.2087448 31.2825424,12.2337503 31.1277706,12.2188163 C31.0878457,12.2166714 31.0475981,12.2118406 31.0072318,12.2041852 C31.004284,12.2036261 31.0013424,12.2030533 30.9984069,12.2024668 Z M42.1153846,36 C41.6270769,36 41.2307692,35.604 41.2307692,35.1 L41.2307692,24.3 C41.2307692,21.816 39.2456923,19.8 36.8076923,19.8 L26.1923077,19.8 C23.7543077,19.8 21.7692308,21.816 21.7692308,24.3 L21.7692308,35.1 C21.7692308,35.604 21.3729231,36 20.8846154,36 C20.3963077,36 20,35.604 20,35.1 L20,24.3 C20,20.826 22.7776923,18 26.1923077,18 L36.8076923,18 C40.2223077,18 43,20.826 43,24.3 L43,35.1 C43,35.604 42.6036923,36 42.1153846,36 Z M38.1111111,32 L23.8888889,32 C23.3982222,32 23,31.56 23,31 C23,30.44 23.3982222,30 23.8888889,30 L38.1111111,30 C38.6017778,30 39,30.44 39,31 C39,31.56 38.6017778,32 38.1111111,32 Z M51.1086957,60 L11.8913043,60 C11.3993043,60 11,59.6117647 11,59.1176471 L11,30.8823529 C11,30.3882353 11.3993043,30 11.8913043,30 L17.2391304,30 C17.7311304,30 18.1304348,30.3882353 18.1304348,30.8823529 C18.1304348,31.3764706 17.7311304,31.7647059 17.2391304,31.7647059 L12.7826087,31.7647059 L12.7826087,58.2352941 L50.2173913,58.2352941 L50.2173913,31.7647059 L45.7608696,31.7647059 C45.2688696,31.7647059 44.8695652,31.3764706 44.8695652,30.8823529 C44.8695652,30.3882353 45.2688696,30 45.7608696,30 L51.1086957,30 C51.6006957,30 52,30.3882353 52,30.8823529 L52,59.1176471 C52,59.6117647 51.6006957,60 51.1086957,60 Z" id="Combined-Shape" fill="#000000"></path>
    </g>
</svg>