<?xml version="1.0" encoding="UTF-8"?>
<svg width="24px" height="24px" viewBox="0 0 24 24" version="1.1" xmlns="http://www.w3.org/2000/svg" xmlns:xlink="http://www.w3.org/1999/xlink">
    <!-- Generator: Sketch 51.3 (57544) - http://www.bohemiancoding.com/sketch -->
    <title>Call</title>
    <desc>Created with Sketch.</desc>
    <defs></defs>
    <g id="Call" stroke="none" stroke-width="1" fill="none" fill-rule="evenodd">
        <path d="M5.14656598,2.08308699 L2.85820067,4.27417217 C1.95898009,5.13516619 1.72518623,6.83211123 2.35325783,7.87418775 L2.41621668,7.97864709 L2.46601578,8.08998273 C2.48133388,8.12422934 2.5439205,8.24773567 2.66227053,8.45545231 C2.88078641,8.83897047 3.17200785,9.2963821 3.54449414,9.82261382 C4.64243405,11.3737335 6.16776416,13.1377767 8.18941601,15.0734866 C10.2119134,17.0100062 12.045459,18.4634555 13.6505879,19.5026013 C14.1957371,19.8555259 14.6688446,20.1303986 15.0650476,20.335752 C15.2804694,20.4474058 15.4090907,20.5064451 15.4460634,20.52134 L15.5736521,20.5727409 L15.6930023,20.6411254 C16.8138371,21.2833336 18.7086997,21.0351478 19.6615635,20.1227909 L21.8243815,18.0519159 L18.1930412,14.5749467 L17.537469,15.20265 C16.0868834,16.5915701 13.7749504,16.5906022 12.3212763,15.1987248 L8.25198086,11.3024182 C6.75314782,9.8673017 6.74943078,7.50229974 8.24788139,6.0675494 L8.77790629,5.56005626 L5.14656598,2.08308699 Z M10.8523143,6.34279351 L9.63105637,7.51213479 C8.95627971,8.15822619 8.95751843,9.20900228 9.63515584,9.85783282 L13.7044513,13.7541394 C14.3864747,14.4071696 15.4789206,14.4047274 16.154294,13.7580646 L17.3755518,12.5887234 C17.8270387,12.1564295 18.5572673,12.1547287 19.009407,12.5876475 L23.4921056,16.8797833 C24.1681977,17.5271343 24.1713312,18.5736974 23.4893076,19.2267276 L21.0447385,21.5673763 C19.4697895,23.075373 16.6106814,23.4719673 14.6987045,22.3764558 C14.6987045,22.3764558 11.6361601,21.1426677 6.80624102,16.518072 C1.97632187,11.8934764 0.640324545,8.9065925 0.640324545,8.9065925 C-0.473631678,7.05835161 -0.0956730314,4.33351389 1.4750257,2.82958676 L3.91959488,0.488938065 C4.59723227,-0.159892479 5.69039714,-0.165161096 6.37073917,0.486259092 L10.8534378,4.77839482 C11.3043042,5.21009454 11.3053164,5.90904882 10.8523143,6.34279351 Z" fill="#000000" fill-rule="nonzero"></path>
    </g>
</svg>