<?xml version="1.0" encoding="UTF-8"?>
<svg width="24px" height="24px" viewBox="0 0 24 24" version="1.1" xmlns="http://www.w3.org/2000/svg" xmlns:xlink="http://www.w3.org/1999/xlink">
    <!-- Generator: Sketch 51.3 (57544) - http://www.bohemiancoding.com/sketch -->
    <title>Chat</title>
    <desc>Created with Sketch.</desc>
    <defs></defs>
    <g id="Chat" stroke="none" stroke-width="1" fill="none" fill-rule="evenodd">
        <path d="M1.09035386,10.1503877 C1.09035386,4.54283749 5.83062303,0 11.6385845,0 C17.4465461,0 22.1868152,4.54283749 22.1868152,10.1503877 C22.1868152,15.757938 17.4465461,20.3007755 11.6385845,20.3007755 C10.7616736,20.3007755 9.89839959,20.1982685 9.0587325,19.9946307 L2.51733664,24.0006643 L3.61926142,16.7346919 C1.9927461,14.9032223 1.09035386,12.5732291 1.09035386,10.1503877 Z M5.13940164,20.0496286 L8.7538942,17.8360676 L9.17682553,17.9574707 C9.97179454,18.1856678 10.7959261,18.3007755 11.6385845,18.3007755 C16.3605629,18.3007755 20.1868152,14.6338862 20.1868152,10.1503877 C20.1868152,5.66688932 16.3605629,2 11.6385845,2 C6.91660617,2 3.09035386,5.66688932 3.09035386,10.1503877 C3.09035386,12.2127037 3.91346496,14.1953391 5.39464608,15.7066812 L5.74397685,16.0631254 L5.13940164,20.0496286 Z" id="Shape" fill="#000000" fill-rule="nonzero"></path>
    </g>
</svg>