<svg viewBox="0 0 24 24" width="24px" height="24px" data-reactid="162"><path d="M1.09 10.15C1.09 4.543 5.83 0 11.64 0c5.808 0 10.548 4.543 10.548 10.15 0 5.608-4.74 10.15-10.548 10.15-.877 0-1.74-.102-2.58-.305L2.517 24l1.102-7.266C1.993 14.903 1.09 12.573 1.09 10.15zm4.05 9.9l3.614-2.214.423.121c.795.229 1.619.344 2.462.344 4.722 0 8.548-3.667 8.548-8.15C20.187 5.666 16.36 2 11.639 2 6.917 2 3.09 5.667 3.09 10.15c0 2.063.823 4.045 2.305 5.557l.349.356-.605 3.987z" fill="currentColor" fill-rule="nonzero" data-reactid="163"></path></svg>