<?xml version="1.0" encoding="utf-8"?>
<!-- Generator: Adobe Illustrator 22.1.0, SVG Export Plug-In . SVG Version: 6.00 Build 0)  -->
<svg version="1.1" id="Layer_1" xmlns="http://www.w3.org/2000/svg" xmlns:xlink="http://www.w3.org/1999/xlink" x="0px" y="0px"
	 viewBox="0 0 24 24" style="enable-background:new 0 0 24 24;" xml:space="preserve">
<style type="text/css">
	.st0{fill:#FFFFFF;}
</style>
<path id="a" class="st0" d="M12.1,9.8l6.5-6.5c0.6-0.6,1.5-0.6,2.2,0c0.6,0.6,0.6,1.5,0,2.2L14.2,12l6.5,6.5c0.6,0.6,0.6,1.5,0,2.2
	c-0.6,0.6-1.5,0.6-2.2,0l-6.5-6.5l-6.5,6.5c-0.6,0.6-1.5,0.6-2.2,0s-0.6-1.5,0-2.2L9.9,12L3.2,5.5c-0.6-0.6-0.6-1.5,0-2.2
	s1.5-0.6,2.2,0L12.1,9.8z"/>
</svg>
