<svg xmlns="http://www.w3.org/2000/svg" width="24" height="24" viewBox="0 0 24 24">
  <g fill="none" fill-rule="evenodd" stroke="#000000" transform="translate(0 1)" stroke-linecap="round" stroke-linejoin="round">
    <polyline points="16.357 4.44 3.5 2.297 .5 19.297 18.5 22.297 21.5 5.297"/>
    <polyline points="5.382 20.111 5.5 22.297 13.3 21.431"/>
    <path d="M18.1364,2.6606 L9.8334,3.3526"/>
    <polyline points="18.76 20.824 23.5 20.297 22.605 4.192"/>
    <path d="M9.5 14.297L10.5 10.297 19.879.918C20.277.52 20.816.297 21.378.297L21.38.297C22.551.297 23.5 1.246 23.5 2.417L23.5 2.419C23.5 2.981 23.277 3.52 22.879 3.918L13.5 13.297 9.5 14.297 9.5 14.297zM18.5 2.297L21.5 5.297"/>
    <path d="M10.5,10.297 C10.5,10.297 11.531,10.328 12.5,11.297 C13.469,12.266 13.5,13.297 13.5,13.297"/>
  </g>
</svg>
