<svg viewBox="0 0 24 24" width="24" height="24" class="_7ytxmo" data-reactid="44"><g fill="none" fill-rule="evenodd" stroke="currentColor" stroke-linecap="round" stroke-linejoin="round" data-reactid="45"><path d="M3.5 21.5h-1m1-3h-1m1-3h-1m1-3h-1m1-3h-1m1-3h-1m4-3v-1m3 1v-1m3 1v-1m3 1v-1m3 1v-1m3 1v-1M16.5 21.5v-5h5M5.5 12.5h1m2 0h1M11.5 12.5h1v-1M12.5 9.5v-1m0-2v-1" data-reactid="46"></path><path d="M23.5.5H.5v23l3-1v-19h19z" data-reactid="47"></path><path d="M.5 3.5h3v-3M21.5 3.5v13l-5 5h-13" data-reactid="48"></path></g></svg>