<?xml version="1.0" encoding="utf-8"?>
<!-- Generator: Adobe Illustrator 22.1.0, SVG Export Plug-In . SVG Version: 6.00 Build 0)  -->
<svg version="1.1" id="Layer_1" xmlns="http://www.w3.org/2000/svg" xmlns:xlink="http://www.w3.org/1999/xlink" x="0px" y="0px"
	 width="24px" height="24px" viewBox="0 0 24 24" style="enable-background:new 0 0 24 24;" xml:space="preserve">
<style type="text/css">
	.st0{fill:#a2a5ad;}
</style>
<g>
	<g>
		<path class="st0" d="M19.5,1.5H4.5c-1.7,0-3,1.4-3,3v14.9c0,1.7,1.4,3,3,3h8.6v-9.3h-1.7v-2.1h1.7V8.6c0-0.8,0.2-3.2,3.2-3.2
			l2.2,0v2h-1.5c-0.6,0-1.3,0.4-1.3,1.3v2.3h2.7l-0.2,2.1h-2.5v9.3h3.6c1.7,0,3-1.4,3-3V4.5C22.5,2.9,21.1,1.5,19.5,1.5z M21.5,19.5
			c0,1.1-0.9,2-2,2h-2.6v-7.3h2.4l0.4-4.1h-2.8V8.8c0-0.3,0.1-0.3,0.3-0.3h2.5v-4l-3.2,0c-3.1,0-4.2,2.3-4.2,4.2v1.5h-1.7v4.1h1.7
			v7.3H4.5c-1.1,0-2-0.9-2-2V4.5c0-1.1,0.9-2,2-2h14.9c1.1,0,2,0.9,2,2V19.5z"/>
	</g>
</g>
</svg>
