<svg xmlns="http://www.w3.org/2000/svg" width="60" height="60" viewBox="0 0 60 60">
  <g fill="none" fill-rule="evenodd">
    <g stroke="#000000" transform="matrix(-1 0 0 1 58 1)" stroke-linecap="round" stroke-linejoin="round">
      <path stroke-width="2" d="M12.3177966 51.8405172L.241525424 56.7543103 5.0720339 44.4698276 47.0733051 1.76405172C49.0634746-.260431034 52.2902542-.260431034 54.2804237 1.76405172L54.2973305 1.78125C56.2947458 3.81310345 56.2923305 7.10780172 54.2804237 9.12737069 43.3803814 20.0851293 12.0666102 51.585 12.3177966 51.8405172L12.3177966 51.8405172zM6.27966102 43.2413793L13.5254237 50.612069M40.0932203 8.84482759L47.3389831 16.2155172"/>
    </g>
    <polygon fill="#FFFFFF" points="20.805 31.957 31.915 20.655 37.712 26.306 26.119 38.836"/>
    <g stroke="#000000" transform="translate(1 1)" stroke-linecap="round" stroke-linejoin="round">
      <path stroke-width="2" d="M15.4156227,36.1911544 L48.592395,1.54763118 C50.2280472,-0.116221889 52.8793662,-0.116221889 54.5124982,1.54763118 C56.1481503,3.20892054 56.1481503,5.90595202 54.5124982,7.5698051 L20.4561533,41.3185907"/>
      <path stroke-width="2" d="M20.4561533 44.1686762C20.4561533 48.5757076 15.2266028 54.2287061 9.23089167 55.5644033-7.79602063 59.3638336 4.73977892 53.1442534 4.73977892 44.1686762 4.73977892 39.7642084 8.25806927 36.1903853 12.5979661 36.1903853 16.9378629 36.1903853 20.4561533 39.7642084 20.4561533 44.1686762L20.4561533 44.1686762zM5.33456153 43.8823088C11.713353 43.8823088 8.87805453 51.5734633 16.6757553 51.5734633M26.7568165 24.6544228L31.7973471 29.7818591"/>
    </g>
  </g>
</svg>
