<?xml version="1.0" encoding="utf-8"?>
<!-- Generator: Adobe Illustrator 22.1.0, SVG Export Plug-In . SVG Version: 6.00 Build 0)  -->
<svg version="1.1" id="Layer_1" xmlns="http://www.w3.org/2000/svg" xmlns:xlink="http://www.w3.org/1999/xlink" x="0px" y="0px"
	 width="24px" height="24px" viewBox="0 0 24 24" style="enable-background:new 0 0 24 24;" xml:space="preserve">
<path style="fill:#a2a5ad;" d="M18.7,10.7c0.1,0.5,0.1,1,0.1,1.5c0,4-2.7,6.8-6.7,6.8c-3.9,0-7-3.1-7-7s3.1-7,7-7
	c1.9,0,3.5,0.7,4.7,1.8l-2,2v0c-0.7-0.7-1.7-1.1-2.7-1.1C9.8,7.7,8,9.7,8,12c0,2.3,1.9,4.3,4.2,4.3c2.1,0,3.5-1.2,3.8-2.8h-3.8v-2.7
	L18.7,10.7L18.7,10.7z"/>
<path style="fill:#a2a5ad;" d="M19.5,22.5h-15c-1.7,0-3-1.4-3-3v-15c0-1.7,1.4-3,3-3h15c1.7,0,3,1.4,3,3v15
	C22.5,21.1,21.2,22.5,19.5,22.5z M4.5,2.5c-1.1,0-2,0.9-2,2v15c0,1.1,0.9,2,2,2h15c1.1,0,2-0.9,2-2v-15c0-1.1-0.9-2-2-2H4.5z"/>
</svg>
