<svg xmlns="http://www.w3.org/2000/svg" width="60" height="60" viewBox="0 0 60 60">
  <g fill="none" fill-rule="evenodd" stroke="#000000" stroke-width="2" stroke-linecap="round" stroke-linejoin="round">
    <path d="M6.9122807 44C4.17913043 44 2 41.7888235 2 39L2 7C2 4.21117647 4.17913043 2 6.9122807 2L53.0877193 2C55.8208696 2 58 4.21117647 58 7L58 39C58 41.7888235 55.8208696 44 53.0877193 44L6.9122807 44zM47 58L13 58C13 55.2375 15.1735714 53 17.8571429 53L42.1428571 53C44.8264286 53 47 55.2375 47 58L47 58zM2 35L58 35M2 8L58 8"/>
    <path d="M31.5 39.5C31.5 40.328 30.828 41 30 41 29.172 41 28.5 40.328 28.5 39.5 28.5 38.672 29.172 38 30 38 30.828 38 31.5 38.672 31.5 39.5L31.5 39.5zM28 52L28 45M32 52.5L32 45"/>
    <polygon points="16 28 21 28 21 23 16 23"/>
    <polygon points="39 19 44 19 44 14 39 14"/>
    <path d="M21,25.5 L39,16.5"/>
  </g>
</svg>
