<?xml version="1.0" encoding="utf-8"?>
<!-- Generator: Adobe Illustrator 22.1.0, SVG Export Plug-In . SVG Version: 6.00 Build 0)  -->
<svg version="1.1" id="Layer_1" xmlns="http://www.w3.org/2000/svg"
	 width="24px" height="24px" xmlns:xlink="http://www.w3.org/1999/xlink" x="0px" y="0px"
	 viewBox="0 0 24 24" style="enable-background:new 0 0 24 24;" xml:space="preserve">
<path style="fill:#a2a5ad;" d="M19.4,1.5H4.6c-1.7,0-3.1,1.4-3.1,3.1v14.8c0,1.7,1.4,3.1,3.1,3.1h14.8c1.7,0,3.1-1.4,3.1-3.1V4.6
	C22.5,2.9,21.1,1.5,19.4,1.5z M21.5,19.4c0,1.2-0.9,2.1-2.1,2.1H4.6c-1.2,0-2.1-0.9-2.1-2.1V8.6H8C7.2,9.5,6.7,10.7,6.7,12
	c0,2.9,2.4,5.3,5.3,5.3s5.3-2.4,5.3-5.3c0-1.3-0.5-2.5-1.3-3.4h5.5V19.4z M12,7.7c2.4,0,4.3,1.9,4.3,4.3s-1.9,4.3-4.3,4.3
	S7.7,14.4,7.7,12S9.6,7.7,12,7.7z M21.5,7.6H15c0,0-0.1,0-0.1,0C14.1,7,13.1,6.7,12,6.7c-1.1,0-2.1,0.3-2.9,0.9c0,0-0.1,0-0.1,0H2.5
	v-3C2.5,4,2.8,3.4,3.2,3v2.5C3.2,5.8,3.5,6,3.7,6s0.5-0.2,0.5-0.5V2.5c0.1,0,0.2,0,0.4,0H5v3C5,5.8,5.2,6,5.5,6S6,5.8,6,5.5v-3h0.7
	v3C6.7,5.8,6.9,6,7.2,6s0.5-0.2,0.5-0.5v-3h11.7c1.2,0,2.1,0.9,2.1,2.1V7.6z"/>
<path style="fill:#a2a5ad;" d="M19.4,3.2h-2.6c-0.3,0-0.5,0.2-0.5,0.5v2.6c0,0.3,0.2,0.5,0.5,0.5h2.6c0.3,0,0.5-0.2,0.5-0.5V3.7
	C19.9,3.5,19.7,3.2,19.4,3.2z M18.9,5.8h-1.6V4.2h1.6V5.8z"/>
<path style="fill:#a2a5ad;" d="M12,14.7c1.5,0,2.7-1.2,2.7-2.7c0-1.5-1.2-2.7-2.7-2.7c-1.5,0-2.7,1.2-2.7,2.7
	C9.3,13.5,10.5,14.7,12,14.7z M12,10.3c0.9,0,1.7,0.8,1.7,1.7s-0.8,1.7-1.7,1.7s-1.7-0.8-1.7-1.7S11.1,10.3,12,10.3z"/>
</svg>
