<?xml version="1.0" encoding="UTF-8"?>
<svg width="24px" height="24px" viewBox="0 0 24 24" version="1.1" xmlns="http://www.w3.org/2000/svg" xmlns:xlink="http://www.w3.org/1999/xlink">
    <!-- Generator: Sketch 51.3 (57544) - http://www.bohemiancoding.com/sketch -->
    <title>Menu</title>
    <desc>Created with Sketch.</desc>
    <defs></defs>
    <g id="Menu" stroke="none" stroke-width="1" fill="none" fill-rule="evenodd">
        <path d="M12.5,5 C11.1192881,5 10,3.88071187 10,2.5 C10,1.11928813 11.1192881,0 12.5,0 C13.8807119,0 15,1.11928813 15,2.5 C15,3.88071187 13.8807119,5 12.5,5 Z M12.5,14 C11.1192881,14 10,12.8807119 10,11.5 C10,10.1192881 11.1192881,9 12.5,9 C13.8807119,9 15,10.1192881 15,11.5 C15,12.8807119 13.8807119,14 12.5,14 Z M12.5,23 C11.1192881,23 10,21.8807119 10,20.5 C10,19.1192881 11.1192881,18 12.5,18 C13.8807119,18 15,19.1192881 15,20.5 C15,21.8807119 13.8807119,23 12.5,23 Z" fill="#000000" fill-rule="nonzero"></path>
    </g>
</svg>