<svg viewBox="0 0 24 24" width="24" height="24" class="">
              <g fill="#e3686f">
                <path
                  d="M19.4 1.5H9.6c-.1 0-.1.1-.2.1L4.3 6.9s-.1.1-.1.2V22c0 .3.2.5.5.5h14.8c.3 0 .5-.2.5-.5V2c-.1-.3-.3-.5-.6-.5zM9.3 3.2v3.5H5.8l3.5-3.5zm9.6 18.3H5.1V7.7h4.7c.3 0 .5-.2.5-.5V2.5h8.6v19z"
                ></path>
                <path
                  d="M11.2 13.4c-.2.5-.3 1-.5 1.4l-.2.4c-.2.4-.4 1-.7 1.6-4 2-3.9 2.8-3.9 3.1 0 .2.1.6.8.8.2.1.4.1.5.1 1.4 0 2.5-1.6 3.4-3.2.5-.3 1.1-.5 1.7-.8.6-.3 1.3-.5 1.9-.6 1.3.9 2.7 1.4 3.4 1.1.4-.2.6-.5.6-.9s-.2-.7-.6-1c-.7-.4-1.9-.5-3.3-.2-.5-.4-1-.8-1.6-1.3-.2-.2-.4-.4-.5-.6.4-1.5.8-3.4.2-4.3-.2-.3-.5-.5-.9-.5-.5 0-1 .3-1.2.9-.3.9-.1 2.5.9 4zm-4.3 6.4c.2-.3.9-.8 1.9-1.3-.5.8-1.2 1.5-1.9 1.3zm10.2-3.6l.1.1c-.2.1-.7 0-1.4-.4.6.1 1 .2 1.3.3zm-5.8-6.5c0-.1.1-.3.2-.3 0 0 .1 0 .1.1.2.4.2 1.4-.1 2.5-.4-.9-.4-1.8-.2-2.3zm.1 5.9l.2-.4c.1-.2.2-.5.3-.9l.2.2c.3.3.6.6 1 .9-.5.1-.9.3-1.3.5l-.6.3c.1-.2.2-.4.2-.6z"
                ></path>
              </g></svg>