<?xml version="1.0" encoding="utf-8"?>
<!-- Generator: Adobe Illustrator 22.1.0, SVG Export Plug-In . SVG Version: 6.00 Build 0)  -->
<svg version="1.1" id="Layer_1" xmlns="http://www.w3.org/2000/svg" xmlns:xlink="http://www.w3.org/1999/xlink" x="0px" y="0px"
	 viewBox="0 0 24 24" style="enable-background:new 0 0 24 24;" xml:space="preserve">
<g>
	<path style="fill:#60C6B3;" d="M19.4,1.5H9.8c-0.1,0-0.1,0-0.2,0c-0.1,0-0.1,0.1-0.2,0.1L4.3,6.9c0,0-0.1,0.1-0.1,0.2
		c0,0.1,0,0.1,0,0.2V22c0,0.3,0.2,0.5,0.5,0.5h14.8c0.3,0,0.5-0.2,0.5-0.5V2C19.9,1.7,19.7,1.5,19.4,1.5z M9.3,3.2v3.5H5.8L9.3,3.2z
		 M18.9,21.5H5.1V7.7h4.7c0.3,0,0.5-0.2,0.5-0.5V2.5h8.6V21.5z"/>
	<path style="fill:#60C6B3;" d="M11.2,13.4c-0.2,0.5-0.3,1-0.5,1.4l-0.2,0.4c-0.2,0.4-0.4,1-0.7,1.6c-4,2-3.9,2.8-3.9,3.1
		c0,0.2,0.1,0.6,0.8,0.8c0.2,0.1,0.4,0.1,0.5,0.1c1.4,0,2.5-1.6,3.4-3.2c0.5-0.3,1.1-0.5,1.7-0.8c0.6-0.3,1.3-0.5,1.9-0.6
		c1.3,0.9,2.7,1.4,3.4,1.1c0.4-0.2,0.6-0.5,0.6-0.9c0-0.4-0.2-0.7-0.6-1c-0.7-0.4-1.9-0.5-3.3-0.2c-0.5-0.4-1-0.8-1.6-1.3
		c-0.2-0.2-0.4-0.4-0.5-0.6c0.4-1.5,0.8-3.4,0.2-4.3c-0.2-0.3-0.5-0.5-0.9-0.5c-0.5,0-1,0.3-1.2,0.9C10,10.3,10.2,11.9,11.2,13.4z
		 M6.9,19.8c0.2-0.3,0.9-0.8,1.9-1.3C8.3,19.3,7.6,20,6.9,19.8z M17.1,16.2c0.1,0.1,0.1,0.1,0.1,0.1c-0.2,0.1-0.7,0-1.4-0.4
		C16.4,16,16.8,16.1,17.1,16.2z M11.3,9.7c0-0.1,0.1-0.3,0.2-0.3c0,0,0.1,0,0.1,0.1c0.2,0.4,0.2,1.4-0.1,2.5
		C11.1,11.1,11.1,10.2,11.3,9.7z M11.4,15.6l0.2-0.4c0.1-0.2,0.2-0.5,0.3-0.9c0.1,0.1,0.1,0.1,0.2,0.2c0.3,0.3,0.6,0.6,1,0.9
		c-0.5,0.1-0.9,0.3-1.3,0.5c-0.2,0.1-0.4,0.2-0.6,0.3C11.3,16,11.4,15.8,11.4,15.6z"/>
</g>
</svg>
