<svg xmlns="http://www.w3.org/2000/svg" xmlns:xlink="http://www.w3.org/1999/xlink" width="60" height="60" viewBox="0 0 60 60">
  <defs>
    <rect id="a" width="14.386" height="19.44"/>
    <path id="c" d="M2.21109412,0.443240562 C2.21109412,0.443240562 3.78748526,0.497144924 5.39301228,1.05738327 C4.35710237,4.25264782 4.83690187,7.88835358 5.40384966,11.053847 C3.85130705,11.2909474 2.42274591,10.3802939 2.42274591,10.3802939 L2.21109412,0.443240562 Z"/>
    <path id="e" d="M2.21109412,0.443240562 C2.21109412,0.443240562 3.78748526,0.497144924 5.39301228,1.05738327 C4.35710237,4.25264782 4.83690187,7.88835358 5.40384966,11.053847 C3.85130705,11.2909474 2.42274591,10.3802939 2.42274591,10.3802939 L2.21109412,0.443240562 Z"/>
  </defs>
  <g fill="none" fill-rule="evenodd">
    <g stroke="#6693e0" stroke-linecap="round" stroke-linejoin="round" stroke-width="2" transform="translate(3 15)">
      <path fill="#FFFFFF" d="M32.074653,20.567031 C35.686161,20.567031 39.6104027,18.7015653 39.6104027,18.7015653 C39.6104027,18.7015653 38.7475593,6.03132236 35.8425278,3.77783981 C32.9374964,1.52435725 26.4228408,0.0469084293 26.4228408,0.0469084293 C26.4228408,2.02803299 23.2446384,3.77783981 19.8290598,3.77783981 C16.4134813,3.77783981 13.2352789,2.02803299 13.2352789,0.0469084293 C13.2352789,0.0469084293 6.72062331,1.52435725 3.81559182,3.77783981 C0.910560324,6.03132236 0.0477169889,18.7015653 0.0477169889,18.7015653 C0.0477169889,18.7015653 3.97195862,20.567031 7.58346664,20.567031"/>
      <path fill="#FFFFFF" d="M32.0764203,12.138009 L32.074653,41.0871536 C32.074653,41.0871536 28.5422704,42.9526193 19.8290598,42.9526193 C11.1158493,42.9526193 7.58346664,41.0871536 7.58346664,41.0871536 L7.58169935,12.138009"/>
      <path d="M13.2352789,0.0469084293 C13.2352789,0.0469084293 18.1806146,0.979641274 19.8290598,0.979641274 C21.4775051,0.979641274 26.4228408,0.0469084293 26.4228408,0.0469084293"/>
    </g>
    <g stroke="#6693e0" stroke-linecap="round" stroke-linejoin="round" stroke-width="2" transform="translate(9 9)">
      <path fill="#FFFFFF" d="M32.074653,20.567031 C35.686161,20.567031 39.6104027,18.7015653 39.6104027,18.7015653 C39.6104027,18.7015653 38.7475593,6.03132236 35.8425278,3.77783981 C32.9374964,1.52435725 26.4228408,0.0469084293 26.4228408,0.0469084293 C26.4228408,2.02803299 23.2446384,3.77783981 19.8290598,3.77783981 C16.4134813,3.77783981 13.2352789,2.02803299 13.2352789,0.0469084293 C13.2352789,0.0469084293 6.72062331,1.52435725 3.81559182,3.77783981 C0.910560324,6.03132236 0.0477169889,18.7015653 0.0477169889,18.7015653 C0.0477169889,18.7015653 3.97195862,20.567031 7.58346664,20.567031"/>
      <path fill="#FFFFFF" d="M32.0764203,12.138009 L32.074653,41.0871536 C32.074653,41.0871536 28.5422704,42.9526193 19.8290598,42.9526193 C11.1158493,42.9526193 7.58346664,41.0871536 7.58346664,41.0871536 L7.58169935,12.138009"/>
      <path d="M13.2352789,0.0469084293 C13.2352789,0.0469084293 18.1806146,0.979641274 19.8290598,0.979641274 C21.4775051,0.979641274 26.4228408,0.0469084293 26.4228408,0.0469084293"/>
    </g>
    <g transform="translate(14 3)">
      <g stroke="#6693e0" stroke-linecap="round" stroke-linejoin="round" stroke-width="2" transform="translate(1)">
        <path fill="#FFFFFF" d="M32.074653,20.567031 C35.686161,20.567031 39.6104027,18.7015653 39.6104027,18.7015653 C39.6104027,18.7015653 38.7475593,6.03132236 35.8425278,3.77783981 C32.9374964,1.52435725 26.4228408,0.0469084293 26.4228408,0.0469084293 C26.4228408,2.02803299 23.2446384,3.77783981 19.8290598,3.77783981 C16.4134813,3.77783981 13.2352789,2.02803299 13.2352789,0.0469084293 C13.2352789,0.0469084293 6.72062331,1.52435725 3.81559182,3.77783981 C0.910560324,6.03132236 0.0477169889,18.7015653 0.0477169889,18.7015653 C0.0477169889,18.7015653 3.97195862,20.567031 7.58346664,20.567031"/>
        <path fill="#FFFFFF" d="M32.0764203,12.138009 L32.074653,41.0871536 C32.074653,41.0871536 28.5422704,42.9526193 19.8290598,42.9526193 C11.1158493,42.9526193 7.58346664,41.0871536 7.58346664,41.0871536 L7.58169935,12.138009"/>
        <path d="M13.2352789,0.0469084293 C13.2352789,0.0469084293 18.1806146,0.979641274 19.8290598,0.979641274 C21.4775051,0.979641274 26.4228408,0.0469084293 26.4228408,0.0469084293"/>
      </g>
      <path fill="#6693e0" d="M28.9939668,38.1800398 C28.9939668,38.7954032 29.4770168,39.2749231 30.091933,39.2749231 L30.3275684,39.2749231 L30.3275684,38.6417426 L30.1576541,38.6417426 C29.8701773,38.6417426 29.6616719,38.4448263 29.6616719,38.1773621 C29.6616719,37.9006288 29.8764314,37.6824967 30.1472659,37.6824967 C30.4131183,37.6824967 30.63233,37.9132965 30.63233,38.1986809 L30.63233,39.2749231 L31.2840288,39.2749231 L31.2840288,38.1986809 C31.2840288,37.5456234 30.7946187,37.0531267 30.1418598,37.0531267 C29.486557,37.0531267 28.9939668,37.5360453 28.9939668,38.1800398 Z"/>
      <g transform="translate(13.83 10.498)">
        <mask id="b" fill="white">
          <use xlink:href="#a"/>
        </mask>
        <g stroke="#6693e0" stroke-linecap="square" stroke-width=".8" mask="url(#b)">
          <g transform="rotate(35 15.774 -9.08)">
            <path d="M.236914601.25L23.3494476.820547203M.242424242 12.5L31.7575758 12.5M.242424242 22.5L31.7575758 22.5M.242424242 10.5L31.7575758 10.5M.242424242 18.5L31.7575758 18.5M.242424242 8.5L31.7575758 8.5M.242424242 14.5L31.7575758 14.5M.242424242 28.5L31.7575758 28.5M.242424242 34.5L31.7575758 34.5M.242424242 6.5L31.7575758 6.5M.242424242 20.5L31.7575758 20.5M.242424242 26.5L31.7575758 26.5M.242424242 32.5L31.7575758 32.5M.242424242 2.5L31.7575758 2.5M.242424242 4.5L31.7575758 4.5M.242424242 16.5L31.7575758 16.5M.242424242 24.5L31.7575758 24.5M.242424242 30.5L31.7575758 30.5"/>
          </g>
        </g>
      </g>
      <g transform="translate(.5 4.666)">
        <mask id="d" fill="white">
          <use xlink:href="#c"/>
        </mask>
        <g stroke="#6693e0" stroke-linecap="square" stroke-width=".8" mask="url(#d)">
          <g transform="rotate(35 30.636 -20.375)">
            <path d="M.242424242.5L31.7575758.5M.242424242 12.5L31.7575758 12.5M.242424242 10.5L31.7575758 10.5M.242424242 22.5L31.7575758 22.5M.242424242 8.5L31.7575758 8.5M.242424242 18.5L31.7575758 18.5M.242424242 6.5L31.7575758 6.5M.242424242 14.5L31.7575758 14.5M.242424242 28.5L31.7575758 28.5M.242424242 34.5L31.7575758 34.5M.242424242 4.5L31.7575758 4.5M.242424242 20.5L31.7575758 20.5M.242424242 26.5L31.7575758 26.5M.242424242 32.5L31.7575758 32.5M.242424242 2.5L31.7575758 2.5M.242424242 16.5L31.7575758 16.5M.242424242 24.5L31.7575758 24.5M.242424242 30.5L31.7575758 30.5"/>
          </g>
        </g>
      </g>
      <g transform="matrix(-1 0 0 1 41.06 4.666)">
        <mask id="f" fill="white">
          <use xlink:href="#e"/>
        </mask>
        <g stroke="#6693e0" stroke-linecap="square" stroke-width=".8" mask="url(#f)">
          <g transform="rotate(35 30.636 -20.375)">
            <path d="M.242424242.5L31.7575758.5M.242424242 10.5L31.7575758 10.5M.242424242 20.5L31.7575758 20.5M.242424242 8.5L31.7575758 8.5M.242424242 16.5L31.7575758 16.5M.242424242 6.5L31.7575758 6.5M.242424242 12.5L31.7575758 12.5M.242424242 26.5L31.7575758 26.5M.242424242 32.5L31.7575758 32.5M.242424242 4.5L31.7575758 4.5M.242424242 18.5L31.7575758 18.5M.242424242 24.5L31.7575758 24.5M.242424242 30.5L31.7575758 30.5M.242424242 2.5L31.7575758 2.5M.242424242 14.5L31.7575758 14.5M.242424242 22.5L31.7575758 22.5M.242424242 28.5L31.7575758 28.5"/>
          </g>
        </g>
      </g>
    </g>
  </g>
</svg>
