<svg xmlns="http://www.w3.org/2000/svg" width="24" height="24" viewBox="0 0 24 24">
  <g fill="#FFFFFF" fill-rule="evenodd" stroke="#000000">
    <path d="M6,19 C8.76142375,19 11,16.7614237 11,14 C11,12.1590508 9.33333333,8.65905083 6,3.5 C2.66666667,8.65905083 1,12.1590508 1,14 C1,16.7614237 3.23857625,19 6,19 Z"/>
    <path d="M12,19 C14.7614237,19 17,16.7614237 17,14 C17,12.1590508 15.3333333,8.65905083 12,3.5 C8.66666667,8.65905083 7,12.1590508 7,14 C7,16.7614237 9.23857625,19 12,19 Z"/>
    <path d="M18,19 C20.7614237,19 23,16.7614237 23,14 C23,12.1590508 21.3333333,8.65905083 18,3.5 C14.6666667,8.65905083 13,12.1590508 13,14 C13,16.7614237 15.2385763,19 18,19 Z"/>
  </g>
</svg>
