<svg xmlns="http://www.w3.org/2000/svg" width="24" height="24" viewBox="0 0 24 24">
  <g fill="none" fill-rule="evenodd" stroke="#000000" stroke-linecap="round" stroke-linejoin="round">
    <path d="M13.5 2.5L16.5 2.5C17.052 2.5 17.5 2.948 17.5 3.5L17.5 8.5M4.5 2.5L1.5 2.5C.948 2.5.5 2.948.5 3.5L.5 22.5C.5 23.052.948 23.5 1.5 23.5L16.5 23.5C17.052 23.5 17.5 23.052 17.5 22.5L17.5 14.5"/>
    <path d="M10.4082 1.5C10.2012.919 9.6522.5 9.0002.5 8.3482.5 7.7982.919 7.5922 1.5L5.5002 1.5C4.9482 1.5 4.5002 1.948 4.5002 2.5L4.5002 3.5 13.5002 3.5 13.5002 2.5C13.5002 1.948 13.0522 1.5 12.5002 1.5L10.4082 1.5 10.4082 1.5zM6.5 11.5L14 11.5M6.5 7.5L15.5 7.5M6.5 15.5L10.5 15.5M6.5 19.5L9.5 19.5M4.5 19.5C4.5 20.052 4.052 20.5 3.5 20.5 2.948 20.5 2.5 20.052 2.5 19.5 2.5 18.948 2.948 18.5 3.5 18.5 4.052 18.5 4.5 18.948 4.5 19.5L4.5 19.5zM4.5 15.5C4.5 16.052 4.052 16.5 3.5 16.5 2.948 16.5 2.5 16.052 2.5 15.5 2.5 14.948 2.948 14.5 3.5 14.5 4.052 14.5 4.5 14.948 4.5 15.5L4.5 15.5zM4.5 11.5C4.5 12.052 4.052 12.5 3.5 12.5 2.948 12.5 2.5 12.052 2.5 11.5 2.5 10.948 2.948 10.5 3.5 10.5 4.052 10.5 4.5 10.948 4.5 11.5L4.5 11.5zM4.5 7.5C4.5 8.052 4.052 8.5 3.5 8.5 2.948 8.5 2.5 8.052 2.5 7.5 2.5 6.948 2.948 6.5 3.5 6.5 4.052 6.5 4.5 6.948 4.5 7.5L4.5 7.5zM9.5 19.5L10.5 15.5 19.879 6.121C20.277 5.723 20.816 5.5 21.378 5.5L21.38 5.5C22.551 5.5 23.5 6.449 23.5 7.62L23.5 7.622C23.5 8.184 23.277 8.723 22.879 9.121L13.5 18.5 9.5 19.5 9.5 19.5zM18.5 7.5L21.5 10.5"/>
    <path d="M10.5,15.5 C10.5,15.5 11.531,15.531 12.5,16.5 C13.469,17.469 13.5,18.5 13.5,18.5"/>
  </g>
</svg>
