<svg xmlns="http://www.w3.org/2000/svg" xmlns:xlink="http://www.w3.org/1999/xlink" width="24" height="24" viewBox="0 0 24 24">
  <defs>
    <path id="a" d="M2,2 L22,2 C22.5522847,2 23,2.44771525 23,3 L23,10 C23,11.6568542 21.6568542,13 20,13 L4,13 C2.34314575,13 1,11.6568542 1,10 L1,3 C1,2.44771525 1.44771525,2 2,2 Z"/>
  </defs>
  <g fill="none" fill-rule="evenodd">
    <path fill="#000000" fill-rule="nonzero" d="M22.5034074,13.2637037 L21.9282963,13.2637037 L21.9282963,12.3463704 C22.5214815,11.8364444 22.898963,11.0823704 22.898963,10.2405926 L22.898963,2.80444444 C22.898963,2.32325926 22.5075556,1.93185185 22.0260741,1.93185185 L15.6871111,1.93185185 L15.6871111,1.25837037 C16.0595556,1.36148148 16.384,1.46992593 16.6432593,1.57392593 C16.6794074,1.58874074 16.7167407,1.59525926 16.7534815,1.59525926 C16.8708148,1.59525926 16.9819259,1.52503704 17.0284444,1.40918519 C17.0894815,1.25718519 17.0157037,1.08474074 16.8637037,1.024 C15.8568889,0.619851852 13.9425185,0.148148148 11.8607407,0.148148148 C9.8082963,0.148148148 7.8882963,0.47762963 6.72385185,1.02992593 C6.576,1.09985185 6.51288889,1.27674074 6.58311111,1.42459259 C6.65303704,1.57214815 6.82933333,1.63555556 6.97777778,1.56533333 C7.224,1.44859259 7.50992593,1.34311111 7.82459259,1.24859259 L7.82459259,1.93185185 L1.76977778,1.93185185 C1.2882963,1.93185185 0.896888889,2.32325926 0.896888889,2.80444444 L0.896888889,10.2405926 C0.896888889,11.0823704 1.27466667,11.8361481 1.86755556,12.3460741 L1.86755556,13.2637037 L1.27437037,13.2637037 C0.592,13.2637037 0.037037037,13.8198519 0.037037037,14.5037037 L0.037037037,20.5315556 C0.037037037,21.2151111 0.592,21.7712593 1.27437037,21.7712593 L1.86755556,21.7712593 L1.86755556,22.3442963 C1.86755556,23.2219259 2.57985185,23.9357037 3.4557037,23.9357037 L20.3398519,23.9357037 C21.2157037,23.9357037 21.928,23.2219259 21.928,22.3442963 L21.928,21.7712593 L22.5031111,21.7712593 C23.1854815,21.7712593 23.7404444,21.2151111 23.7404444,20.5315556 L23.7404444,14.5034074 C23.7407407,13.8198519 23.1857778,13.2637037 22.5034074,13.2637037 Z M22.5034074,13.8562963 C22.858963,13.8562963 23.1481481,14.1466667 23.1481481,14.5037037 L23.1481481,16.0844444 L21.9282963,16.0844444 L21.9282963,13.8562963 L22.5034074,13.8562963 Z M8.40651852,1.09540741 C9.39496296,0.868148148 10.5976296,0.740740741 11.8607407,0.740740741 C13.0518519,0.740740741 14.1807407,0.900740741 15.1025185,1.11111111 C15.1007407,1.12444444 15.0945185,1.13659259 15.0945185,1.15051852 L15.0945185,1.93185185 L8.41748148,1.93185185 L8.41748148,1.15051852 C8.41748148,1.13096296 8.41007407,1.11377778 8.40651852,1.09540741 Z M1.48918519,10.2405926 L1.48918519,2.80444444 C1.48918519,2.65007407 1.61511111,2.52444444 1.76948148,2.52444444 L22.0257778,2.52444444 C22.1801481,2.52444444 22.3060741,2.65007407 22.3060741,2.80444444 L22.3060741,10.2405926 C22.3060741,11.4456296 21.3253333,12.4263704 20.1202963,12.4263704 L13.2136296,12.4263704 L13.2136296,10.9022222 C13.2136296,10.7383704 13.0811852,10.6059259 12.9173333,10.6059259 L10.8044444,10.6059259 C10.6405926,10.6059259 10.5081481,10.7383704 10.5081481,10.9022222 L10.5081481,12.4263704 L3.67525926,12.4263704 C2.46992593,12.4260741 1.48918519,11.4456296 1.48918519,10.2405926 Z M11.4862222,14.2465185 C11.2737778,14.2465185 11.1007407,14.0737778 11.1007407,13.8613333 L11.1007407,11.1985185 L12.621037,11.1985185 L12.621037,13.8613333 C12.621037,14.0737778 12.448,14.2465185 12.2355556,14.2465185 L11.4862222,14.2465185 Z M1.27437037,13.8562963 L1.86755556,13.8562963 L1.86755556,16.0844444 L0.62962963,16.0844444 L0.62962963,14.5037037 C0.62962963,14.1466667 0.918814815,13.8562963 1.27437037,13.8562963 Z M1.27437037,21.1783704 C0.918814815,21.1783704 0.62962963,20.8882963 0.62962963,20.5312593 L0.62962963,16.6767407 L1.86755556,16.6767407 L1.86755556,21.1780741 L1.27437037,21.1780741 L1.27437037,21.1783704 Z M2.46014815,22.3437037 L2.46014815,12.7351111 C2.82785185,12.914963 3.23940741,13.0186667 3.67555556,13.0186667 L10.5084444,13.0186667 L10.5084444,13.8613333 C10.5084444,14.4002963 10.946963,14.8391111 11.4865185,14.8391111 L11.5555556,14.8391111 L11.5555556,23.3425185 L3.4557037,23.3425185 C2.90696296,23.3425185 2.46014815,22.8945185 2.46014815,22.3437037 Z M20.3398519,23.3425185 L12.1481481,23.3425185 L12.1481481,14.8391111 L12.2355556,14.8391111 C12.7748148,14.8391111 13.2136296,14.4005926 13.2136296,13.8613333 L13.2136296,13.0186667 L20.1208889,13.0186667 C20.557037,13.0186667 20.9682963,12.914963 21.336,12.7351111 L21.336,22.3437037 C21.3357037,22.8945185 20.8888889,23.3425185 20.3398519,23.3425185 Z M22.5034074,21.1783704 L21.9282963,21.1783704 L21.9282963,16.6767407 L23.1481481,16.6767407 L23.1481481,20.5312593 C23.1481481,20.888 22.858963,21.1783704 22.5034074,21.1783704 Z" opacity=".055"/>
    <path fill="#000000" fill-rule="nonzero" d="M7.21096296,4.79081481 L16.5848889,4.79081481 C16.7487407,4.79081481 16.8811852,4.65837037 16.8811852,4.49451852 C16.8811852,4.33066667 16.7487407,4.19822222 16.5848889,4.19822222 L7.21096296,4.19822222 C7.04711111,4.19822222 6.91466667,4.33066667 6.91466667,4.49451852 C6.91466667,4.65837037 7.04711111,4.79081481 7.21096296,4.79081481 Z"/>
    <path stroke="#000000" d="M5.5 16.5L5.5 20C5.5 20.8284271 6.17157288 21.5 7 21.5L8 21.5C8.82842712 21.5 9.5 20.8284271 9.5 20L9.5 16.5 5.5 16.5zM10.5 12.5L10.5 13C10.5 13.8284271 11.1715729 14.5 12 14.5 12.8284271 14.5 13.5 13.8284271 13.5 13L13.5 12.5 10.5 12.5z"/>
    <rect width="1" height="9" x="11.5" y="14" fill="#000000"/>
    <path stroke="#000000" d="M14.5,16.5 L14.5,20 C14.5,20.8284271 15.1715729,21.5 16,21.5 L17,21.5 C17.8284271,21.5 18.5,20.8284271 18.5,20 L18.5,16.5 L14.5,16.5 Z"/>
    <path stroke="#000000" d="M2.5 11.5L2.5 21C2.5 22.3807119 3.61928813 23.5 5 23.5L19 23.5C20.3807119 23.5 21.5 22.3807119 21.5 21L21.5 11.5 2.5 11.5zM2.5 21.5L2.5 13.5 2 13.5C1.17157288 13.5.5 14.1715729.5 15L.5 20C.5 20.8284271 1.17157288 21.5 2 21.5L2.5 21.5zM21.5 13.5L21.5 21.5 22 21.5C22.8284271 21.5 23.5 20.8284271 23.5 20L23.5 15C23.5 14.1715729 22.8284271 13.5 22 13.5L21.5 13.5z"/>
    <use fill="#FFFFFF" xlink:href="#a"/>
    <path stroke="#000000" d="M2,2.5 C1.72385763,2.5 1.5,2.72385763 1.5,3 L1.5,10 C1.5,11.3807119 2.61928813,12.5 4,12.5 L20,12.5 C21.3807119,12.5 22.5,11.3807119 22.5,10 L22.5,3 C22.5,2.72385763 22.2761424,2.5 22,2.5 L2,2.5 Z"/>
    <path stroke="#000000" stroke-linecap="round" d="M17,1 C15,0.5 9,0.5 7,1"/>
    <rect width="1" height="1" x="8" y="1" fill="#000000"/>
    <rect width="1" height="1" x="15" y="1" fill="#000000"/>
    <rect width="14" height="1" x="5" y="6" fill="#000000"/>
    <rect width="3" height="1" x="6" y="18" fill="#000000"/>
    <rect width="3" height="1" x="15" y="18" fill="#000000"/>
    <rect width="3" height="1" x="21" y="16" fill="#000000"/>
    <rect width="3" height="1" y="16" fill="#000000"/>
  </g>
</svg>
