<svg viewBox="0 0 24 24" width="24" height="24" class="_7ytxmo" data-reactid="138"><g fill="#FFF" fill-rule="evenodd" stroke="currentColor" data-reactid="139"><path d="M6 19a5 5 0 0 0 5-5c0-1.84-1.667-5.34-5-10.5C2.667 8.66 1 12.16 1 14a5 5 0 0 0 5 5z" data-reactid="140"></path><path d="M12 19a5 5 0 0 0 5-5c0-1.84-1.667-5.34-5-10.5C8.667 8.66 7 12.16 7 14a5 5 0 0 0 5 5z" data-reactid="141"></path><path d="M18 19a5 5 0 0 0 5-5c0-1.84-1.667-5.34-5-10.5-3.333 5.16-5 8.66-5 10.5a5 5 0 0 0 5 5z" data-reactid="142"></path></g></svg>