<svg xmlns="http://www.w3.org/2000/svg" xmlns:xlink="http://www.w3.org/1999/xlink" width="60" height="60" viewBox="0 0 60 60">
  <defs>
    <rect id="a" width="2" height="7" x="48" y="29" rx="1"/>
  </defs>
  <g fill="none" fill-rule="evenodd">
    <path stroke="#e3686f" stroke-linecap="round" stroke-linejoin="round" stroke-width="2" d="M21,44 L57,44 C58.1045695,44 59,44.8954305 59,46 L59,52 C59,53.1045695 58.1045695,54 57,54 L3,54 C1.8954305,54 1,53.1045695 1,52 L1,46 C1,44.8954305 1.8954305,44 3,44 L4,44 L4,12 C4,10.8954305 4.8954305,10 6,10 L9,10 L9,8 C9,6.8954305 9.8954305,6 11,6 L15,6 C16.1045695,6 17,6.8954305 17,8 L17,10 L46,10 L46,8 C46,6.8954305 46.8954305,6 48,6 L50,6 C51.1045695,6 52,6.8954305 52,8 L52,10 L54.5,10 C55.3284271,10 56,10.6715729 56,11.5 L56,22.5 C56,23.3284271 55.3284271,24 54.5,24 L52,24 L52,28.5 C52,29.3284271 51.3284271,30 50.5,30 L47.5,30 C46.6715729,30 46,29.3284271 46,28.5 L46,24 L43.5,24 C42.6715729,24 42,23.3284271 42,22.5 L42,20 L21,20 L21,44 Z M14.2495915,25.7142409 L13.5207157,25 L14.2495915,24.2857591 C14.7270773,23.8178605 15,23.1818552 15,22.5 C15,21.1192881 13.8807119,20 12.5,20 C11.1192881,20 10,21.1192881 10,22.5 C10,23.1818552 10.2729227,23.8178605 10.7504085,24.2857591 L11.4792843,25 L10.7504085,25.7142409 C10.2729227,26.1821395 10,26.8181448 10,27.5 C10,28.8807119 11.1192881,30 12.5,30 C13.8807119,30 15,28.8807119 15,27.5 C15,26.8181448 14.7270773,26.1821395 14.2495915,25.7142409 Z"/>
    <use fill="#D8D8D8" xlink:href="#a"/>
    <rect width="1" height="6" x="48.5" y="29.5" stroke="#e3686f" rx=".5"/>
    <rect width="19" height="2" x="4" y="43" fill="#e3686f"/>
    <rect width="9" height="2" x="44" y="23" fill="#e3686f"/>
    <circle cx="49" cy="16" r="1" fill="#e3686f"/>
    <circle cx="14" cy="49" r="1" fill="#e3686f"/>
    <circle cx="10" cy="49" r="1" fill="#e3686f"/>
  </g>
</svg>
