<svg xmlns="http://www.w3.org/2000/svg" width="24" height="24" viewBox="0 0 24 24">
  <g fill="none" fill-rule="evenodd" stroke="#000000" stroke-linecap="round" stroke-linejoin="round" transform="translate(1 1)">
    <path d="M7.5 9.5C7.5 10.052 7.052 10.5 6.5 10.5 5.948 10.5 5.5 10.052 5.5 9.5 5.5 8.948 5.948 8.5 6.5 8.5 7.052 8.5 7.5 8.948 7.5 9.5L7.5 9.5zM12.5 9.5C12.5 10.052 12.052 10.5 11.5 10.5 10.948 10.5 10.5 10.052 10.5 9.5 10.5 8.948 10.948 8.5 11.5 8.5 12.052 8.5 12.5 8.948 12.5 9.5L12.5 9.5zM17.5 9.5C17.5 10.052 17.052 10.5 16.5 10.5 15.948 10.5 15.5 10.052 15.5 9.5 15.5 8.948 15.948 8.5 16.5 8.5 17.052 8.5 17.5 8.948 17.5 9.5L17.5 9.5z"/>
    <path d="M11.5,0.5 C5.425,0.5 0.5,4.305 0.5,9 C0.5,11.545 1.955,13.822 4.248,15.38 L2.5,21.5 L7.878,17.019 C9.013,17.325 10.229,17.5 11.5,17.5 C17.575,17.5 22.5,13.694 22.5,9 C22.5,4.305 17.575,0.5 11.5,0.5 L11.5,0.5 Z"/>
  </g>
</svg>
