<svg viewBox="0 0 24 24" width="24px" height="24px" data-reactid="175"><path d="M5.147 2.083L2.858 4.274c-.899.861-1.133 2.558-.505 3.6l.063.105.05.111c.015.034.078.158.196.365.219.384.51.841.882 1.368 1.098 1.55 2.624 3.315 4.645 5.25 2.023 1.937 3.856 3.39 5.462 4.43.545.353 1.018.627 1.414.833a5.9 5.9 0 0 0 .381.185l.128.052.119.068c1.12.642 3.016.394 3.969-.518l2.162-2.071-3.631-3.477-.656.628a3.783 3.783 0 0 1-5.216-.004l-4.069-3.897a3.61 3.61 0 0 1-.004-5.234l.53-.508-3.631-3.477zm5.705 4.26l-1.22 1.17a1.61 1.61 0 0 0 .003 2.345l4.07 3.896c.681.653 1.774.65 2.45.004l1.22-1.17a1.19 1.19 0 0 1 1.634 0l4.483 4.292c.676.647.68 1.694-.003 2.347l-2.444 2.34c-1.575 1.508-4.434 1.905-6.346.81 0 0-3.063-1.234-7.893-5.859S.64 8.907.64 8.907c-1.114-1.849-.736-4.573.835-6.077L3.92.489A1.784 1.784 0 0 1 6.37.486l4.483 4.292c.451.432.452 1.131 0 1.565z" fill="currentColor" fill-rule="nonzero" data-reactid="176"></path></svg>