<?xml version="1.0" encoding="utf-8"?>
<!-- Generator: Adobe Illustrator 22.1.0, SVG Export Plug-In . SVG Version: 6.00 Build 0)  -->
<svg version="1.1" id="Layer_1" xmlns="http://www.w3.org/2000/svg" xmlns:xlink="http://www.w3.org/1999/xlink" x="0px" y="0px"
	 viewBox="0 0 24 24" style="enable-background:new 0 0 24 24;" xml:space="preserve">
<g>
	<path d="M19.1,1.9H4.9c-1.7,0-3,1.3-3,3v14.2c0,1.7,1.3,3,3,3h14.2c1.7,0,3-1.3,3-3V4.9C22.1,3.3,20.7,1.9,19.1,1.9z M21.1,19.1
		c0,1.1-0.9,2-2,2H4.9c-1.1,0-2-0.9-2-2V6.2h18.2V19.1z M21.1,5.2H2.9V4.9c0-1.1,0.9-2,2-2h14.2c1.1,0,2,0.9,2,2V5.2z"/>
	<path d="M5.8,17.9h1.7c0.3,0,0.5-0.2,0.5-0.5v-1l8.3-5.3c0.1,0.1,0.2,0.1,0.3,0.1h1.7c0.3,0,0.5-0.2,0.5-0.5V9.1
		c0-0.3-0.2-0.5-0.5-0.5h-1.7c-0.3,0-0.5,0.2-0.5,0.5v1l-8.3,5.3c-0.1-0.1-0.2-0.1-0.3-0.1H5.8c-0.3,0-0.5,0.2-0.5,0.5v1.7
		C5.2,17.7,5.5,17.9,5.8,17.9z M17.1,9.6h0.7v0.7h-0.7V9.6z M6.2,16.2h0.7v0.7H6.2V16.2z"/>
</g>
</svg>
