<svg xmlns="http://www.w3.org/2000/svg" width="24" height="24" viewBox="0 0 24 24">
  <g fill="none" fill-rule="evenodd" stroke="#000000" stroke-linecap="round" stroke-linejoin="round">
    <path d="M3.5 21.5L2.5 21.5M3.5 18.5L2.5 18.5M3.5 15.5L2.5 15.5M3.5 12.5L2.5 12.5M3.5 9.5L2.5 9.5M3.5 6.5L2.5 6.5M6.5 3.5L6.5 2.5M9.5 3.5L9.5 2.5M12.5 3.5L12.5 2.5M15.5 3.5L15.5 2.5M18.5 3.5L18.5 2.5M21.5 3.5L21.5 2.5"/>
    <polyline points="16.5 21.5 16.5 16.5 21.5 16.5"/>
    <path d="M5.5 12.5L6.5 12.5M8.5 12.5L9.5 12.5"/>
    <polyline points="11.5 12.5 12.5 12.5 12.5 11.5"/>
    <path d="M12.5 9.5L12.5 8.5M12.5 6.5L12.5 5.5"/>
    <polygon points="23.5 .5 .5 .5 .5 23.5 3.5 22.5 3.5 3.5 22.5 3.5"/>
    <polyline points=".5 3.5 3.5 3.5 3.5 .5"/>
    <polyline points="21.5 3.5 21.5 16.5 16.5 21.5 3.5 21.5"/>
  </g>
</svg>
