<svg xmlns="http://www.w3.org/2000/svg" xmlns:xlink="http://www.w3.org/1999/xlink" width="60" height="60" viewBox="0 0 60 60">
  <defs>
    <rect id="a" width="19.001" height="25.676"/>
    <path id="c" d="M1.76820544,0.585425365 C1.76820544,0.585425365 3.85027878,0.656621425 5.97083435,1.39657567 C4.60262036,5.61683231 5.23633222,10.4188169 5.9851482,14.5997523 C3.93457362,14.912911 2.04775189,13.7101337 2.04775189,13.7101337 L1.76820544,0.585425365 Z"/>
    <path id="e" d="M1.76820544,0.585425365 C1.76820544,0.585425365 3.85027878,0.656621425 5.97083435,1.39657567 C4.60262036,5.61683231 5.23633222,10.4188169 5.9851482,14.5997523 C3.93457362,14.912911 2.04775189,13.7101337 2.04775189,13.7101337 L1.76820544,0.585425365 Z"/>
  </defs>
  <g fill="none" fill-rule="evenodd" transform="translate(4 1)">
    <g stroke="#000000" stroke-linecap="round" stroke-linejoin="round" stroke-width="2" transform="translate(.169)">
      <path fill="#FFFFFF" d="M42.3637119,27.1646205 C47.1337366,27.1646205 52.316815,24.7007419 52.316815,24.7007419 C52.316815,24.7007419 51.1771847,7.96607847 47.3402634,4.98971313 C43.5033422,2.01334778 34.8988846,0.0619559371 34.8988846,0.0619559371 C34.8988846,2.67859501 30.7011634,4.98971313 26.1899194,4.98971313 C21.6786755,4.98971313 17.4809542,2.67859501 17.4809542,0.0619559371 C17.4809542,0.0619559371 8.87649664,2.01334778 5.0395754,4.98971313 C1.20265417,7.96607847 0.0630238703,24.7007419 0.0630238703,24.7007419 C0.0630238703,24.7007419 5.24610229,27.1646205 10.0161269,27.1646205"/>
      <path fill="#FFFFFF" d="M42.3660461,16.031697 L42.3637119,54.267285 C42.3637119,54.267285 37.6981948,56.7311636 26.1899194,56.7311636 C14.681644,56.7311636 10.0161269,54.267285 10.0161269,54.267285 L10.0137927,16.031697"/>
      <path d="M17.4809542,0.0619559371 C17.4809542,0.0619559371 24.0126781,1.29389523 26.1899194,1.29389523 C28.3671607,1.29389523 34.8988846,0.0619559371 34.8988846,0.0619559371"/>
    </g>
    <path fill="#000000" d="M37.1426147,50.4276136 C37.1426147,51.2403761 37.7806198,51.8737187 38.5927917,51.8737187 L38.9040153,51.8737187 L38.9040153,51.0374235 L38.6795951,51.0374235 C38.2999002,51.0374235 38.0245094,50.7773395 38.0245094,50.4240769 C38.0245094,50.0585718 38.3081605,49.7704662 38.6658746,49.7704662 C39.0170084,49.7704662 39.3065397,50.0753031 39.3065397,50.4522345 L39.3065397,51.8737187 L40.1672936,51.8737187 L40.1672936,50.4522345 C40.1672936,49.589686 39.5208882,48.9392039 38.6587343,48.9392039 C37.7932203,48.9392039 37.1426147,49.5770355 37.1426147,50.4276136 Z"/>
    <g transform="translate(17.115 13.865)">
      <mask id="b" fill="white">
        <use xlink:href="#a"/>
      </mask>
      <g stroke="#000000" stroke-linecap="square" stroke-width=".8" mask="url(#b)">
        <g transform="rotate(35 22.885 4.631)">
          <path d="M.325757576 10.5L42.6742424 10.5M.325757576 20.5L42.6742424 20.5M.325757576 8.5L42.6742424 8.5M.325757576 16.5L42.6742424 16.5M.325757576 6.5L42.6742424 6.5M.325757576 12.5L42.6742424 12.5M.325757576 40.5L42.6742424 40.5M.325757576 46.5L42.6742424 46.5M.325757576 4.5L42.6742424 4.5M.325757576 18.5L42.6742424 18.5M.325757576 38.5L42.6742424 38.5M.325757576 36.5L42.6742424 36.5M.325757576 34.5L42.6742424 34.5M.325757576 32.5L42.6742424 32.5M.325757576 30.5L42.6742424 30.5M.325757576 28.5L42.6742424 28.5M.325757576 26.5L42.6742424 26.5M.325757576 24.5L42.6742424 24.5M.325757576 44.5L42.6742424 44.5M.325757576.5L42.6742424.5M.325757576 2.5L42.6742424 2.5M.325757576 14.5L42.6742424 14.5M.325757576 22.5L42.6742424 22.5M.325757576 42.5L42.6742424 42.5"/>
        </g>
      </g>
    </g>
    <g transform="translate(.66 6.162)">
      <mask id="d" fill="white">
        <use xlink:href="#c"/>
      </mask>
      <g stroke="#000000" stroke-linecap="square" stroke-width=".8" mask="url(#d)">
        <g transform="rotate(35 39.888 -28.738)">
          <path d="M.325757576 6L42.6742424 6M.325757576 23.5L42.6742424 23.5M.325757576 21.5L42.6742424 21.5M.325757576 33.5L42.6742424 33.5M.325757576 19.5L42.6742424 19.5M.325757576 29.5L42.6742424 29.5M.325757576 17.5L42.6742424 17.5M.325757576 25.5L42.6742424 25.5M.325757576 39.5L42.6742424 39.5M.325757576 45.5L42.6742424 45.5M.325757576 15.5L42.6742424 15.5M.325757576 31.5L42.6742424 31.5M.325757576 37.5L42.6742424 37.5M.325757576 43.5L42.6742424 43.5M.325757576 13.5L42.6742424 13.5M.325757576 27.5L42.6742424 27.5M.325757576 35.5L42.6742424 35.5M.325757576 41.5L42.6742424 41.5"/>
        </g>
      </g>
    </g>
    <g transform="matrix(-1 0 0 1 51.927 6.162)">
      <mask id="f" fill="white">
        <use xlink:href="#e"/>
      </mask>
      <g stroke="#000000" stroke-linecap="square" stroke-width=".8" mask="url(#f)">
        <g transform="rotate(35 45.983 -37.797)">
          <path d="M.325757576 3L42.6742424 3M.325757576 19.5L42.6742424 19.5M.325757576 25.5L42.6742424 25.5M.325757576 15.5L42.6742424 15.5M.325757576 21.5L42.6742424 21.5M.325757576 13.5L42.6742424 13.5M.325757576 17.5L42.6742424 17.5M.325757576 29.5L42.6742424 29.5M.325757576 35.5L42.6742424 35.5M.325757576 9.5L42.6742424 9.5M.325757576 23.5L42.6742424 23.5M.325757576 33.5L42.6742424 33.5M.325757576 7.5L42.6742424 7.5M.325757576 11.5L42.6742424 11.5M.325757576 27.5L42.6742424 27.5M.325757576 31.5L42.6742424 31.5"/>
        </g>
      </g>
    </g>
  </g>
</svg>
