<svg xmlns="http://www.w3.org/2000/svg" width="24" height="24" viewBox="0 0 24 24">
  <g fill="none" fill-rule="evenodd" stroke="#000000" stroke-linecap="round" stroke-linejoin="round">
    <path d="M7.5,11.5 L2.5,11.5 C1.395,11.5 0.5,12.395 0.5,13.5 L0.5,21.5 C0.5,22.605 1.395,23.5 2.5,23.5 L21.5,23.5 C22.605,23.5 23.5,22.605 23.5,21.5 L23.5,13.5 C23.5,12.395 22.605,11.5 21.5,11.5 L17.5,11.5"/>
    <path d="M21.087,0.913 L5.5,16.5 L3.5,20.5 L7.5,18.5 L23.087,2.913 C23.638,2.362 23.638,1.47 23.087,0.919 L23.081,0.913 C22.53,0.362 21.638,0.362 21.087,0.913 L21.087,0.913 Z"/>
    <polyline points="22.5 5.5 18.5 1.5 13.5 6.5"/>
    <path d="M5.5 16.5L7.5 18.5M14.5 14.5L20.5 14.5M20.5 17.5L11.5 17.5M20.5 20.5L8.5 20.5"/>
  </g>
</svg>
